999
dxflib 3.17.0.0
  0
SECTION
  2
HEADER
  9
$ACADVER
  1
AC1015
  9
$HANDSEED
  5
FFFF
  9
$DIMADEC
 70
0
  9
$DIMASZ
 40
2.5
  9
$DIMAUNIT
 70
0
  9
$DIMAZIN
 70
2
  9
$DIMDEC
 70
4
  9
$DIMDSEP
 70
46
  9
$DIMEXE
 40
1.25
  9
$DIMEXO
 40
0.625
  9
$DIMGAP
 40
0.625
  9
$DIMLUNIT
 70
2
  9
$DIMSCALE
 40
1.0
  9
$DIMTSZ
 40
0.0
  9
$DIMTXT
 40
2.5
  9
$DIMZIN
 70
8
  9
$DWGCODEPAGE
  3
ANSI_1252
  9
$INSUNITS
 70
4
  9
$LTSCALE
 40
1.0
  9
$MAXACTVP
 70
32
  9
$MEASUREMENT
 70
1
  9
$PDMODE
 70
0
  9
$PDSIZE
 40
0
  0
ENDSEC
  0
SECTION
  2
TABLES
  0
TABLE
  2
VPORT
  5
8
100
AcDbSymbolTable
 70
1
  0
VPORT
  5
30
100
AcDbSymbolTableRecord
100
AcDbViewportTableRecord
  2
*Active
 70
0
 10
0.0
 20
0.0
 11
1.0
 21
1.0
 12
286.30555555555549
 22
148.5
 13
0.0
 23
0.0
 14
10.0
 24
10.0
 15
10.0
 25
10.0
 16
0.0
 26
0.0
 36
1.0
 17
0.0
 27
0.0
 37
0.0
 40
297.0
 41
1.92798353909465
 42
50.0
 43
0.0
 44
0.0
 50
0.0
 51
0.0
 71
0
 72
100
 73
1
 74
3
 75
1
 76
1
 77
0
 78
0
281
0
 65
1
110
0.0
120
0.0
130
0.0
111
1.0
121
0.0
131
0.0
112
0.0
122
1.0
132
0.0
 79
0
146
0.0
  0
ENDTAB
  0
TABLE
  2
LTYPE
  5
5
100
AcDbSymbolTable
 70
41
  0
LTYPE
  5
16
100
AcDbSymbolTableRecord
100
AcDbLinetypeTableRecord
  2
Continuous
 70
0
  3
Solid line
 72
65
 73
0
 40
0.0
  0
LTYPE
  5
31
100
AcDbSymbolTableRecord
100
AcDbLinetypeTableRecord
  2
HIDDEN2
 70
0
  3
Hidden (.5x) _ _ _ _ _ _ _ _ _ _ _ _ _ _ _ _ _ 
 72
65
 73
2
 40
4.7624999999999993
 49
3.1749999999999998
 74
0
 49
-1.5874999999999999
 74
0
  0
LTYPE
  5
32
100
AcDbSymbolTableRecord
100
AcDbLinetypeTableRecord
  2
BORDER
 70
0
  3
Border __ __ . __ __ . __ __ . __ __ . __ __ .
 72
65
 73
6
 40
44.449999999999996
 49
12.699999999999999
 74
0
 49
-6.3499999999999996
 74
0
 49
12.699999999999999
 74
0
 49
-6.2999999999999998
 74
0
 49
0.1
 74
0
 49
-6.2999999999999998
 74
0
  0
LTYPE
  5
33
100
AcDbSymbolTableRecord
100
AcDbLinetypeTableRecord
  2
ACAD_ISO03W100
 70
0
  3
ISO dash space __    __    __    __    __    __
 72
65
 73
2
 40
30.0
 49
12.0
 74
0
 49
-18.0
 74
0
  0
LTYPE
  5
34
100
AcDbSymbolTableRecord
100
AcDbLinetypeTableRecord
  2
PHANTOMX2
 70
0
  3
Phantom (2x) ____________    ____    ____   _
 72
65
 73
6
 40
127.00000000000001
 49
63.5
 74
0
 49
-12.699999999999999
 74
0
 49
12.699999999999999
 74
0
 49
-12.699999999999999
 74
0
 49
12.699999999999999
 74
0
 49
-12.699999999999999
 74
0
  0
LTYPE
  5
35
100
AcDbSymbolTableRecord
100
AcDbLinetypeTableRecord
  2
ACAD_ISO09W100
 70
0
  3
ISO long-dash double-short-dash ____ __ __ ____
 72
65
 73
6
 40
45.0
 49
24.0
 74
0
 49
-3.0
 74
0
 49
6.0
 74
0
 49
-3.0
 74
0
 49
6.0
 74
0
 49
-3.0
 74
0
  0
LTYPE
  5
36
100
AcDbSymbolTableRecord
100
AcDbLinetypeTableRecord
  2
ACAD_ISO02W100
 70
0
  3
ISO dash __ __ __ __ __ __ __ __ __ __ __ __ __
 72
65
 73
2
 40
15.0
 49
12.0
 74
0
 49
-3.0
 74
0
  0
LTYPE
  5
37
100
AcDbSymbolTableRecord
100
AcDbLinetypeTableRecord
  2
ACAD_ISO06W100
 70
0
  3
ISO long-dash triple-dot ____ ... ____ ... ____
 72
65
 73
8
 40
36.000000000000007
 49
24.0
 74
0
 49
-2.9500000000000002
 74
0
 49
0.1
 74
0
 49
-2.9000000000000004
 74
0
 49
0.1
 74
0
 49
-2.9000000000000004
 74
0
 49
0.1
 74
0
 49
-2.9500000000000002
 74
0
  0
LTYPE
  5
38
100
AcDbSymbolTableRecord
100
AcDbLinetypeTableRecord
  2
DOT2
 70
0
  3
Dot (.5x) ........................................
 72
65
 73
2
 40
3.1749999999999998
 49
0.1
 74
0
 49
-3.0749999999999997
 74
0
  0
LTYPE
  5
39
100
AcDbSymbolTableRecord
100
AcDbLinetypeTableRecord
  2
DOTX2
 70
0
  3
Dot (2x) .  .  .  .  .  .  .  .  .  .  .  .  .  .
 72
65
 73
2
 40
12.699999999999999
 49
0.1
 74
0
 49
-12.6
 74
0
  0
LTYPE
  5
3A
100
AcDbSymbolTableRecord
100
AcDbLinetypeTableRecord
  2
ACAD_ISO08W100
 70
0
  3
ISO long-dash short-dash ____ __ ____ __ ____ _
 72
65
 73
4
 40
36.0
 49
24.0
 74
0
 49
-3.0
 74
0
 49
6.0
 74
0
 49
-3.0
 74
0
  0
LTYPE
  5
3B
100
AcDbSymbolTableRecord
100
AcDbLinetypeTableRecord
  2
ACAD_ISO11W100
 70
0
  3
ISO double-dash dot __ __ . __ __ . __ __ . __ _
 72
65
 73
6
 40
33.0
 49
12.0
 74
0
 49
-3.0
 74
0
 49
12.0
 74
0
 49
-2.9500000000000002
 74
0
 49
0.1
 74
0
 49
-2.9500000000000002
 74
0
  0
LTYPE
  5
3C
100
AcDbSymbolTableRecord
100
AcDbLinetypeTableRecord
  2
BORDER2
 70
0
  3
Border (.5x) __.__.__.__.__.__.__.__.__.__.__.
 72
65
 73
6
 40
22.225000000000001
 49
6.3499999999999996
 74
0
 49
-3.1749999999999998
 74
0
 49
6.3499999999999996
 74
0
 49
-3.125
 74
0
 49
0.1
 74
0
 49
-3.125
 74
0
  0
LTYPE
  5
3D
100
AcDbSymbolTableRecord
100
AcDbLinetypeTableRecord
  2
ACAD_ISO13W100
 70
0
  3
ISO double-dash double-dot __ __ . . __ __ . . _
 72
65
 73
8
 40
36.000000000000007
 49
12.0
 74
0
 49
-3.0
 74
0
 49
12.0
 74
0
 49
-2.9500000000000002
 74
0
 49
0.1
 74
0
 49
-2.9000000000000004
 74
0
 49
0.1
 74
0
 49
-2.9500000000000002
 74
0
  0
LTYPE
  5
3E
100
AcDbSymbolTableRecord
100
AcDbLinetypeTableRecord
  2
BORDERX2
 70
0
  3
Border (2x) ____  ____  .  ____  ____  .  ___
 72
65
 73
6
 40
88.899999999999977
 49
25.399999999999999
 74
0
 49
-12.699999999999999
 74
0
 49
25.399999999999999
 74
0
 49
-12.649999999999999
 74
0
 49
0.1
 74
0
 49
-12.649999999999999
 74
0
  0
LTYPE
  5
3F
100
AcDbSymbolTableRecord
100
AcDbLinetypeTableRecord
  2
ACAD_ISO04W100
 70
0
  3
ISO long-dash dot ____ . ____ . ____ . ____ . _
 72
65
 73
4
 40
30.0
 49
24.0
 74
0
 49
-2.9500000000000002
 74
0
 49
0.1
 74
0
 49
-2.9500000000000002
 74
0
  0
LTYPE
  5
40
100
AcDbSymbolTableRecord
100
AcDbLinetypeTableRecord
  2
ACAD_ISO14W100
 70
0
  3
ISO dash triple-dot __ . . . __ . . . __ . . . _
 72
65
 73
8
 40
24.000000000000004
 49
12.0
 74
0
 49
-2.9500000000000002
 74
0
 49
0.1
 74
0
 49
-2.9000000000000004
 74
0
 49
0.1
 74
0
 49
-2.9000000000000004
 74
0
 49
0.1
 74
0
 49
-2.9500000000000002
 74
0
  0
LTYPE
  5
41
100
AcDbSymbolTableRecord
100
AcDbLinetypeTableRecord
  2
HIDDENX2
 70
0
  3
Hidden (2x) ____ ____ ____ ____ ____ ____ ____ 
 72
65
 73
2
 40
19.049999999999997
 49
12.699999999999999
 74
0
 49
-6.3499999999999996
 74
0
  0
LTYPE
  5
42
100
AcDbSymbolTableRecord
100
AcDbLinetypeTableRecord
  2
ACAD_ISO07W100
 70
0
  3
ISO dot . . . . . . . . . . . . . . . . . . . . 
 72
65
 73
2
 40
3.0
 49
0.1
 74
0
 49
-2.8999999999999999
 74
0
  0
LTYPE
  5
43
100
AcDbSymbolTableRecord
100
AcDbLinetypeTableRecord
  2
DIVIDEX2
 70
0
  3
Divide (2x) ________  .  .  ________  .  .  _
 72
65
 73
6
 40
63.5
 49
25.399999999999999
 74
0
 49
-12.649999999999999
 74
0
 49
0.1
 74
0
 49
-12.599999999999998
 74
0
 49
0.1
 74
0
 49
-12.649999999999999
 74
0
  0
LTYPE
  5
44
100
AcDbSymbolTableRecord
100
AcDbLinetypeTableRecord
  2
DASHDOT
 70
0
  3
Dash dot __ . __ . __ . __ . __ . __ . __ . __
 72
65
 73
4
 40
25.400000000000002
 49
12.699999999999999
 74
0
 49
-6.2999999999999998
 74
0
 49
0.1
 74
0
 49
-6.2999999999999998
 74
0
  0
LTYPE
  5
45
100
AcDbSymbolTableRecord
100
AcDbLinetypeTableRecord
  2
DIVIDE
 70
0
  3
Divide ____ . . ____ . . ____ . . ____ . . ____
 72
65
 73
6
 40
31.750000000000004
 49
12.699999999999999
 74
0
 49
-6.2999999999999998
 74
0
 49
0.1
 74
0
 49
-6.25
 74
0
 49
0.1
 74
0
 49
-6.2999999999999998
 74
0
  0
LTYPE
  5
46
100
AcDbSymbolTableRecord
100
AcDbLinetypeTableRecord
  2
ACAD_ISO05W100
 70
0
  3
ISO long-dash double-dot ____ .. ____ .. ____ . 
 72
65
 73
6
 40
33.000000000000007
 49
24.0
 74
0
 49
-2.9500000000000002
 74
0
 49
0.1
 74
0
 49
-2.9000000000000004
 74
0
 49
0.1
 74
0
 49
-2.9500000000000002
 74
0
  0
LTYPE
  5
47
100
AcDbSymbolTableRecord
100
AcDbLinetypeTableRecord
  2
DASHED2
 70
0
  3
Dashed (.5x) _ _ _ _ _ _ _ _ _ _ _ _ _ _ _ _ _ 
 72
65
 73
2
 40
9.5249999999999986
 49
6.3499999999999996
 74
0
 49
-3.1749999999999998
 74
0
  0
LTYPE
  5
48
100
AcDbSymbolTableRecord
100
AcDbLinetypeTableRecord
  2
DOT
 70
0
  3
Dot . . . . . . . . . . . . . . . . . . . . . . . .
 72
65
 73
2
 40
6.3499999999999996
 49
0.1
 74
0
 49
-6.25
 74
0
  0
LTYPE
  5
49
100
AcDbSymbolTableRecord
100
AcDbLinetypeTableRecord
  2
DASHDOT2
 70
0
  3
Dash dot (.5x) _._._._._._._._._._._._._._._.
 72
65
 73
4
 40
12.699999999999999
 49
6.3499999999999996
 74
0
 49
-3.125
 74
0
 49
0.1
 74
0
 49
-3.125
 74
0
  0
LTYPE
  5
4A
100
AcDbSymbolTableRecord
100
AcDbLinetypeTableRecord
  2
HIDDEN
 70
0
  3
Hidden __ __ __ __ __ __ __ __ __ __ __ __ __ __
 72
65
 73
2
 40
9.5249999999999986
 49
6.3499999999999996
 74
0
 49
-3.1749999999999998
 74
0
  0
LTYPE
  5
4B
100
AcDbSymbolTableRecord
100
AcDbLinetypeTableRecord
  2
PHANTOM
 70
0
  3
Phantom ______  __  __  ______  __  __  ______ 
 72
65
 73
6
 40
63.500000000000007
 49
31.75
 74
0
 49
-6.3499999999999996
 74
0
 49
6.3499999999999996
 74
0
 49
-6.3499999999999996
 74
0
 49
6.3499999999999996
 74
0
 49
-6.3499999999999996
 74
0
  0
LTYPE
  5
4C
100
AcDbSymbolTableRecord
100
AcDbLinetypeTableRecord
  2
ACAD_ISO15W100
 70
0
  3
ISO double-dash triple-dot __ __ . . . __ __ . .
 72
65
 73
10
 40
39.000000000000007
 49
12.0
 74
0
 49
-3.0
 74
0
 49
12.0
 74
0
 49
-2.9500000000000002
 74
0
 49
0.1
 74
0
 49
-2.9000000000000004
 74
0
 49
0.1
 74
0
 49
-2.9000000000000004
 74
0
 49
0.1
 74
0
 49
-2.9500000000000002
 74
0
  0
LTYPE
  5
14
100
AcDbSymbolTableRecord
100
AcDbLinetypeTableRecord
  2
BYBLOCK
 70
0
  3

 72
65
 73
0
 40
0.0
  0
LTYPE
  5
4D
100
AcDbSymbolTableRecord
100
AcDbLinetypeTableRecord
  2
ACAD_ISO12W100
 70
0
  3
ISO dash double-dot __ . . __ . . __ . . __ . . 
 72
65
 73
6
 40
21.0
 49
12.0
 74
0
 49
-2.9500000000000002
 74
0
 49
0.1
 74
0
 49
-2.9000000000000004
 74
0
 49
0.1
 74
0
 49
-2.9500000000000002
 74
0
  0
LTYPE
  5
4E
100
AcDbSymbolTableRecord
100
AcDbLinetypeTableRecord
  2
DASHEDX2
 70
0
  3
Dashed (2x) ____  ____  ____  ____  ____  ___
 72
65
 73
2
 40
38.099999999999994
 49
25.399999999999999
 74
0
 49
-12.699999999999999
 74
0
  0
LTYPE
  5
4F
100
AcDbSymbolTableRecord
100
AcDbLinetypeTableRecord
  2
CENTERX2
 70
0
  3
Center (2x) ________  __  ________  __  _____
 72
65
 73
4
 40
101.60000000000001
 49
63.5
 74
0
 49
-12.699999999999999
 74
0
 49
12.699999999999999
 74
0
 49
-12.699999999999999
 74
0
  0
LTYPE
  5
50
100
AcDbSymbolTableRecord
100
AcDbLinetypeTableRecord
  2
PHANTOM2
 70
0
  3
Phantom (.5x) ___ _ _ ___ _ _ ___ _ _ ___ _ _
 72
65
 73
6
 40
31.750000000000004
 49
15.875
 74
0
 49
-3.1749999999999998
 74
0
 49
3.1749999999999998
 74
0
 49
-3.1749999999999998
 74
0
 49
3.1749999999999998
 74
0
 49
-3.1749999999999998
 74
0
  0
LTYPE
  5
51
100
AcDbSymbolTableRecord
100
AcDbLinetypeTableRecord
  2
DASHED
 70
0
  3
Dashed __ __ __ __ __ __ __ __ __ __ __ __ __ _
 72
65
 73
2
 40
19.049999999999997
 49
12.699999999999999
 74
0
 49
-6.3499999999999996
 74
0
  0
LTYPE
  5
52
100
AcDbSymbolTableRecord
100
AcDbLinetypeTableRecord
  2
DIVIDE2
 70
0
  3
Divide (.5x) __..__..__..__..__..__..__..__.._
 72
65
 73
6
 40
15.874999999999998
 49
6.3499999999999996
 74
0
 49
-3.125
 74
0
 49
0.1
 74
0
 49
-3.0750000000000002
 74
0
 49
0.1
 74
0
 49
-3.125
 74
0
  0
LTYPE
  5
53
100
AcDbSymbolTableRecord
100
AcDbLinetypeTableRecord
  2
DASHDOTX2
 70
0
  3
Dash dot (2x) ____  .  ____  .  ____  .  ___
 72
65
 73
4
 40
50.799999999999997
 49
25.399999999999999
 74
0
 49
-12.649999999999999
 74
0
 49
0.1
 74
0
 49
-12.649999999999999
 74
0
  0
LTYPE
  5
15
100
AcDbSymbolTableRecord
100
AcDbLinetypeTableRecord
  2
BYLAYER
 70
0
  3

 72
65
 73
0
 40
0.0
  0
LTYPE
  5
54
100
AcDbSymbolTableRecord
100
AcDbLinetypeTableRecord
  2
CENTER2
 70
0
  3
Center (.5x) ___ _ ___ _ ___ _ ___ _ ___ _ ___
 72
65
 73
4
 40
28.575000000000003
 49
19.050000000000001
 74
0
 49
-3.1749999999999998
 74
0
 49
3.1749999999999998
 74
0
 49
-3.1749999999999998
 74
0
  0
LTYPE
  5
55
100
AcDbSymbolTableRecord
100
AcDbLinetypeTableRecord
  2
CENTER
 70
0
  3
Center ____ _ ____ _ ____ _ ____ _ ____ _ ____
 72
65
 73
4
 40
50.800000000000004
 49
31.75
 74
0
 49
-6.3499999999999996
 74
0
 49
6.3499999999999996
 74
0
 49
-6.3499999999999996
 74
0
  0
LTYPE
  5
56
100
AcDbSymbolTableRecord
100
AcDbLinetypeTableRecord
  2
ACAD_ISO10W100
 70
0
  3
ISO dash dot __ . __ . __ . __ . __ . __ . __ . 
 72
65
 73
4
 40
18.0
 49
12.0
 74
0
 49
-2.9500000000000002
 74
0
 49
0.1
 74
0
 49
-2.9500000000000002
 74
0
  0
ENDTAB
  0
TABLE
  2
LAYER
  5
2
100
AcDbSymbolTable
 70
2
  0
LAYER
  5
10
100
AcDbSymbolTableRecord
100
AcDbLayerTableRecord
  2
0
 70
0
 62
7
420
16777215
  6
Continuous
370
25
390
F
  0
LAYER
  5
57
100
AcDbSymbolTableRecord
100
AcDbLayerTableRecord
  2
Layer1
 70
0
 62
2
420
16776960
  6
Continuous
370
-3
390
F
  0
ENDTAB
  0
TABLE
  2
STYLE
  5
3
100
AcDbSymbolTable
 70
1
  0
STYLE
  5
58
100
AcDbSymbolTableRecord
100
AcDbTextStyleTableRecord
  2
Standard
 70
0
 40
0.0
 41
1.0
 50
0.0
 71
0
 42
2.5
  3

  4

1001
ACAD
1000
txt
1071
0
  0
ENDTAB
  0
TABLE
  2
VIEW
  5
6
100
AcDbSymbolTable
 70
0
  0
ENDTAB
  0
TABLE
  2
UCS
  5
7
100
AcDbSymbolTable
 70
0
  0
ENDTAB
  0
TABLE
  2
APPID
  5
9
100
AcDbSymbolTable
 70
1
  0
APPID
  5
12
100
AcDbSymbolTableRecord
100
AcDbRegAppTableRecord
  2
ACAD
 70
0
  0
APPID
  5
59
100
AcDbSymbolTableRecord
100
AcDbRegAppTableRecord
  2
QCAD
 70
0
  0
ENDTAB
  0
TABLE
  2
DIMSTYLE
  5
A
100
AcDbSymbolTable
 70
1
100
AcDbDimStyleTable
 71
0
  0
DIMSTYLE
105
27
100
AcDbSymbolTableRecord
100
AcDbDimStyleTableRecord
  2
Standard
 41
2.5
 42
0.625
 43
3.75
 44
1.25
 70
0
 73
0
 74
0
 77
1
 78
8
140
2.5
141
2.5
143
0.03937007874016
147
0.625
171
3
172
1
271
2
272
2
274
3
278
44
283
0
284
8
340
58
  0
ENDTAB
  0
TABLE
  2
BLOCK_RECORD
  5
1
100
AcDbSymbolTable
 70
1
  0
BLOCK_RECORD
  5
1F
100
AcDbSymbolTableRecord
100
AcDbBlockTableRecord
  2
*Model_Space
340
22
  0
BLOCK_RECORD
  5
1B
100
AcDbSymbolTableRecord
100
AcDbBlockTableRecord
  2
*Paper_Space
340
1E
  0
BLOCK_RECORD
  5
23
100
AcDbSymbolTableRecord
100
AcDbBlockTableRecord
  2
*Paper_Space0
340
26
  0
ENDTAB
  0
ENDSEC
  0
SECTION
  2
BLOCKS
  0
BLOCK
  5
20
100
AcDbEntity
  8
0
100
AcDbBlockBegin
  2
*Model_Space
 70
0
 10
0.0
 20
0.0
 30
0.0
  3
*Model_Space
  1

  0
ENDBLK
  5
21
100
AcDbEntity
  8
0
100
AcDbBlockEnd
  0
BLOCK
  5
1C
100
AcDbEntity
 67
1
  8
0
100
AcDbBlockBegin
  2
*Paper_Space
 70
0
 10
0.0
 20
0.0
 30
0.0
  3
*Paper_Space
  1

  0
ENDBLK
  5
1D
100
AcDbEntity
 67
1
  8
0
100
AcDbBlockEnd
  0
BLOCK
  5
24
100
AcDbEntity
  8
0
100
AcDbBlockBegin
  2
*Paper_Space0
 70
0
 10
0.0
 20
0.0
 30
0.0
  3
*Paper_Space0
  1

  0
ENDBLK
  5
25
100
AcDbEntity
  8
0
100
AcDbBlockEnd
  0
ENDSEC
  0
SECTION
  2
ENTITIES
  0
LINE
  5
5A
100
AcDbEntity
  8
Layer1
 62
256
370
-1
 48
1.0
  6
BYLAYER
100
AcDbLine
 10
26.930060528263851
 20
156.96346374399997
 30
0.0
 11
26.930060528263851
 21
124.86346374399996
 31
0.0
  0
LINE
  5
5B
100
AcDbEntity
  8
Layer1
 62
256
370
-1
 48
1.0
  6
BYLAYER
100
AcDbLine
 10
26.930060528263851
 20
124.86346374399996
 30
0.0
 11
29.880060528263897
 21
124.86346374399996
 31
0.0
  0
LINE
  5
5C
100
AcDbEntity
  8
Layer1
 62
256
370
-1
 48
1.0
  6
BYLAYER
100
AcDbLine
 10
29.880060528263897
 20
124.86346374399996
 30
0.0
 11
29.880060528263897
 21
156.96346374399997
 31
0.0
  0
LINE
  5
5D
100
AcDbEntity
  8
Layer1
 62
256
370
-1
 48
1.0
  6
BYLAYER
100
AcDbLine
 10
29.880060528263897
 20
156.96346374399997
 30
0.0
 11
26.930060528263851
 21
156.96346374399997
 31
0.0
  0
LINE
  5
5E
100
AcDbEntity
  8
Layer1
 62
256
370
-1
 48
1.0
  6
BYLAYER
100
AcDbLine
 10
54.005060528263897
 20
106.90652674399996
 30
0.0
 11
90.605060528263891
 21
106.90652674399996
 31
0.0
  0
LINE
  5
5F
100
AcDbEntity
  8
Layer1
 62
256
370
-1
 48
1.0
  6
BYLAYER
100
AcDbLine
 10
90.605060528263891
 20
106.90652674399996
 30
0.0
 11
90.605060528263891
 21
109.85652674399996
 31
0.0
  0
LINE
  5
60
100
AcDbEntity
  8
Layer1
 62
256
370
-1
 48
1.0
  6
BYLAYER
100
AcDbLine
 10
90.605060528263891
 20
109.85652674399996
 30
0.0
 11
54.005060528263897
 21
109.85652674399996
 31
0.0
  0
LINE
  5
61
100
AcDbEntity
  8
Layer1
 62
256
370
-1
 48
1.0
  6
BYLAYER
100
AcDbLine
 10
54.005060528263897
 20
109.85652674399996
 30
0.0
 11
54.005060528263897
 21
106.90652674399996
 31
0.0
  0
LINE
  5
62
100
AcDbEntity
  8
Layer1
 62
256
370
-1
 48
1.0
  6
BYLAYER
100
AcDbLine
 10
90.605060528263891
 20
171.97040074399996
 30
0.0
 11
90.605060528263891
 21
174.92040074399995
 31
0.0
  0
LINE
  5
63
100
AcDbEntity
  8
Layer1
 62
256
370
-1
 48
1.0
  6
BYLAYER
100
AcDbLine
 10
90.605060528263891
 20
174.92040074399995
 30
0.0
 11
54.005060528263897
 21
174.92040074399995
 31
0.0
  0
LINE
  5
64
100
AcDbEntity
  8
Layer1
 62
256
370
-1
 48
1.0
  6
BYLAYER
100
AcDbLine
 10
54.005060528263897
 20
174.92040074399995
 30
0.0
 11
54.005060528263897
 21
171.97040074399996
 31
0.0
  0
LINE
  5
65
100
AcDbEntity
  8
Layer1
 62
256
370
-1
 48
1.0
  6
BYLAYER
100
AcDbLine
 10
54.005060528263897
 20
171.97040074399996
 30
0.0
 11
90.605060528263891
 21
171.97040074399996
 31
0.0
  0
LINE
  5
66
100
AcDbEntity
  8
Layer1
 62
256
370
-1
 48
1.0
  6
BYLAYER
100
AcDbLine
 10
116.68006052826391
 20
124.86346374399996
 30
0.0
 11
116.68006052826391
 21
156.96346374399997
 31
0.0
  0
LINE
  5
67
100
AcDbEntity
  8
Layer1
 62
256
370
-1
 48
1.0
  6
BYLAYER
100
AcDbLine
 10
116.68006052826391
 20
156.96346374399997
 30
0.0
 11
113.73006052826389
 21
156.96346374399997
 31
0.0
  0
LINE
  5
68
100
AcDbEntity
  8
Layer1
 62
256
370
-1
 48
1.0
  6
BYLAYER
100
AcDbLine
 10
113.73006052826389
 20
156.96346374399997
 30
0.0
 11
113.73006052826389
 21
124.86346374399996
 31
0.0
  0
LINE
  5
69
100
AcDbEntity
  8
Layer1
 62
256
370
-1
 48
1.0
  6
BYLAYER
100
AcDbLine
 10
113.73006052826389
 20
124.86346374399996
 30
0.0
 11
116.68006052826391
 21
124.86346374399996
 31
0.0
  0
CIRCLE
  5
6A
100
AcDbEntity
  8
Layer1
 62
256
370
-1
 48
1.0
  6
BYLAYER
100
AcDbCircle
 10
24.405060799736106
 20
104.38152686445159
 30
0.0
 40
1.5
  0
CIRCLE
  5
6B
100
AcDbEntity
  8
Layer1
 62
256
370
-1
 48
1.0
  6
BYLAYER
100
AcDbCircle
 10
119.2050607997362
 20
104.38152686445159
 30
0.0
 40
1.5
  0
CIRCLE
  5
6C
100
AcDbEntity
  8
Layer1
 62
256
370
-1
 48
1.0
  6
BYLAYER
100
AcDbCircle
 10
24.405060799736106
 20
177.44540057134094
 30
0.0
 40
1.5
  0
CIRCLE
  5
6D
100
AcDbEntity
  8
Layer1
 62
256
370
-1
 48
1.0
  6
BYLAYER
100
AcDbCircle
 10
119.2050607997362
 20
177.44540057134094
 30
0.0
 40
1.5
  0
LINE
  5
6E
100
AcDbEntity
  8
Layer1
 62
256
370
-1
 48
1.0
  6
BYLAYER
100
AcDbLine
 10
26.930060528263851
 20
64.318871743999964
 30
0.0
 11
26.930060528263851
 21
32.218871743999962
 31
0.0
  0
LINE
  5
6F
100
AcDbEntity
  8
Layer1
 62
256
370
-1
 48
1.0
  6
BYLAYER
100
AcDbLine
 10
26.930060528263851
 20
32.218871743999962
 30
0.0
 11
29.880060528263897
 21
32.218871743999962
 31
0.0
  0
LINE
  5
70
100
AcDbEntity
  8
Layer1
 62
256
370
-1
 48
1.0
  6
BYLAYER
100
AcDbLine
 10
29.880060528263897
 20
32.218871743999962
 30
0.0
 11
29.880060528263897
 21
64.318871743999964
 31
0.0
  0
LINE
  5
71
100
AcDbEntity
  8
Layer1
 62
256
370
-1
 48
1.0
  6
BYLAYER
100
AcDbLine
 10
29.880060528263897
 20
64.318871743999964
 30
0.0
 11
26.930060528263851
 21
64.318871743999964
 31
0.0
  0
LINE
  5
72
100
AcDbEntity
  8
Layer1
 62
256
370
-1
 48
1.0
  6
BYLAYER
100
AcDbLine
 10
116.68006052826391
 20
32.218871743999962
 30
0.0
 11
116.68006052826391
 21
64.318871743999964
 31
0.0
  0
LINE
  5
73
100
AcDbEntity
  8
Layer1
 62
256
370
-1
 48
1.0
  6
BYLAYER
100
AcDbLine
 10
116.68006052826391
 20
64.318871743999964
 30
0.0
 11
113.73006052826389
 21
64.318871743999964
 31
0.0
  0
LINE
  5
74
100
AcDbEntity
  8
Layer1
 62
256
370
-1
 48
1.0
  6
BYLAYER
100
AcDbLine
 10
113.73006052826389
 20
64.318871743999964
 30
0.0
 11
113.73006052826389
 21
32.218871743999962
 31
0.0
  0
LINE
  5
75
100
AcDbEntity
  8
Layer1
 62
256
370
-1
 48
1.0
  6
BYLAYER
100
AcDbLine
 10
113.73006052826389
 20
32.218871743999962
 30
0.0
 11
116.68006052826391
 21
32.218871743999962
 31
0.0
  0
LINE
  5
76
100
AcDbEntity
  8
Layer1
 62
256
370
-1
 48
1.0
  6
BYLAYER
100
AcDbLine
 10
234.41469391092329
 20
153.14780880390384
 30
0.0
 11
234.41469391092329
 21
171.24299233877713
 31
0.0
  0
LINE
  5
77
100
AcDbEntity
  8
Layer1
 62
256
370
-1
 48
1.0
  6
BYLAYER
100
AcDbLine
 10
234.41469391092329
 20
171.24299233877713
 30
0.0
 11
231.41469391092329
 21
171.24299233877713
 31
0.0
  0
LINE
  5
78
100
AcDbEntity
  8
Layer1
 62
256
370
-1
 48
1.0
  6
BYLAYER
100
AcDbLine
 10
231.41469391092329
 20
179.94540057134049
 30
0.0
 11
231.41469391092329
 21
171.24299233877713
 31
0.0
  0
LINE
  5
79
100
AcDbEntity
  8
Layer1
 62
256
370
-1
 48
1.0
  6
BYLAYER
100
AcDbLine
 10
231.41469352826391
 20
179.94540057134049
 30
0.0
 11
208.36469391092308
 21
179.94540057134049
 31
0.0
  0
LINE
  5
7A
100
AcDbEntity
  8
Layer1
 62
256
370
-1
 48
1.0
  6
BYLAYER
100
AcDbLine
 10
208.36469391092308
 20
179.94540057134049
 30
0.0
 11
208.36469391092308
 21
182.94540057134049
 31
0.0
  0
LINE
  5
7B
100
AcDbEntity
  8
Layer1
 62
256
370
-1
 48
1.0
  6
BYLAYER
100
AcDbLine
 10
208.36469391092308
 20
182.94540057134049
 30
0.0
 11
171.86469391092308
 21
182.94540057134049
 31
0.0
  0
LINE
  5
7C
100
AcDbEntity
  8
Layer1
 62
256
370
-1
 48
1.0
  6
BYLAYER
100
AcDbLine
 10
171.86469391092308
 20
179.94540057134049
 30
0.0
 11
171.86469391092308
 21
182.94540057134049
 31
0.0
  0
LINE
  5
7D
100
AcDbEntity
  8
Layer1
 62
256
370
-1
 48
1.0
  6
BYLAYER
100
AcDbLine
 10
144.81469352826389
 20
179.94540057134049
 30
0.0
 11
171.86469391092348
 21
179.94540057134049
 31
0.0
  0
LINE
  5
7E
100
AcDbEntity
  8
Layer1
 62
256
370
-1
 48
1.0
  6
BYLAYER
100
AcDbLine
 10
144.81469391092378
 20
171.14299233877676
 30
0.0
 11
144.81469391092378
 21
179.94540057134049
 31
0.0
  0
LINE
  5
7F
100
AcDbEntity
  8
Layer1
 62
256
370
-1
 48
1.0
  6
BYLAYER
100
AcDbLine
 10
144.81469391092378
 20
171.14299233877676
 30
0.0
 11
147.81469391092378
 21
171.14299233877676
 31
0.0
  0
LINE
  5
80
100
AcDbEntity
  8
Layer1
 62
256
370
-1
 48
1.0
  6
BYLAYER
100
AcDbLine
 10
147.81469391092378
 20
171.14299233877676
 30
0.0
 11
147.81469391092378
 21
153.24780880390375
 31
0.0
  0
LINE
  5
81
100
AcDbEntity
  8
Layer1
 62
256
370
-1
 48
1.0
  6
BYLAYER
100
AcDbLine
 10
144.81469391092378
 20
153.24780880390375
 30
0.0
 11
147.81469391092378
 21
153.24780880390375
 31
0.0
  0
LINE
  5
82
100
AcDbEntity
  8
Layer1
 62
256
370
-1
 48
1.0
  6
BYLAYER
100
AcDbLine
 10
144.81469391092338
 20
144.44540057134049
 30
0.0
 11
144.81469391092338
 21
153.24780880390375
 31
0.0
  0
LINE
  5
83
100
AcDbEntity
  8
Layer1
 62
256
370
-1
 48
1.0
  6
BYLAYER
100
AcDbLine
 10
171.86469391092308
 20
144.44540057134049
 30
0.0
 11
144.81469352826389
 21
144.44540057134049
 31
0.0
  0
LINE
  5
84
100
AcDbEntity
  8
Layer1
 62
256
370
-1
 48
1.0
  6
BYLAYER
100
AcDbLine
 10
171.86469391092308
 20
144.44540057134049
 30
0.0
 11
171.86469391092308
 21
141.44540057134049
 31
0.0
  0
LINE
  5
85
100
AcDbEntity
  8
Layer1
 62
256
370
-1
 48
1.0
  6
BYLAYER
100
AcDbLine
 10
208.36469391092308
 20
141.44540057134049
 30
0.0
 11
171.86469391092308
 21
141.44540057134049
 31
0.0
  0
LINE
  5
86
100
AcDbEntity
  8
Layer1
 62
256
370
-1
 48
1.0
  6
BYLAYER
100
AcDbLine
 10
208.36469391092308
 20
144.44540057134049
 30
0.0
 11
208.36469391092308
 21
141.44540057134049
 31
0.0
  0
LINE
  5
87
100
AcDbEntity
  8
Layer1
 62
256
370
-1
 48
1.0
  6
BYLAYER
100
AcDbLine
 10
231.41469352826391
 20
144.44540057134049
 30
0.0
 11
208.36469391092348
 21
144.44540057134049
 31
0.0
  0
LINE
  5
88
100
AcDbEntity
  8
Layer1
 62
256
370
-1
 48
1.0
  6
BYLAYER
100
AcDbLine
 10
231.41469391092329
 20
144.44540057134049
 30
0.0
 11
231.41469391092329
 21
153.14780880390384
 31
0.0
  0
LINE
  5
89
100
AcDbEntity
  8
Layer1
 62
256
370
-1
 48
1.0
  6
BYLAYER
100
AcDbLine
 10
234.41469391092329
 20
153.14780880390384
 30
0.0
 11
231.41469391092329
 21
153.14780880390384
 31
0.0
  0
LINE
  5
8A
100
AcDbEntity
  8
Layer1
 62
256
370
-1
 48
1.0
  6
BYLAYER
100
AcDbLine
 10
234.41469391092369
 20
101.67729660267065
 30
0.0
 11
234.41469391092369
 21
119.77248013754394
 31
0.0
  0
LINE
  5
8B
100
AcDbEntity
  8
Layer1
 62
256
370
-1
 48
1.0
  6
BYLAYER
100
AcDbLine
 10
234.4146939109242
 20
119.77248013754394
 30
0.0
 11
231.41469391092369
 21
119.77248013754394
 31
0.0
  0
LINE
  5
8C
100
AcDbEntity
  8
Layer1
 62
256
370
-1
 48
1.0
  6
BYLAYER
100
AcDbLine
 10
231.41469391092329
 20
128.47488837010729
 30
0.0
 11
231.41469391092329
 21
119.77248013754394
 31
0.0
  0
LINE
  5
8D
100
AcDbEntity
  8
Layer1
 62
256
370
-1
 48
1.0
  6
BYLAYER
100
AcDbLine
 10
231.41469352826391
 20
128.47488837010729
 30
0.0
 11
208.36469391092308
 21
128.47488837010729
 31
0.0
  0
LINE
  5
8E
100
AcDbEntity
  8
Layer1
 62
256
370
-1
 48
1.0
  6
BYLAYER
100
AcDbLine
 10
208.36469391092348
 20
128.47488837010729
 30
0.0
 11
208.36469391092348
 21
131.47488837010729
 31
0.0
  0
LINE
  5
8F
100
AcDbEntity
  8
Layer1
 62
256
370
-1
 48
1.0
  6
BYLAYER
100
AcDbLine
 10
208.36469391092348
 20
131.47488837010729
 30
0.0
 11
171.86469391092348
 21
131.47488837010729
 31
0.0
  0
LINE
  5
90
100
AcDbEntity
  8
Layer1
 62
256
370
-1
 48
1.0
  6
BYLAYER
100
AcDbLine
 10
171.86469391092348
 20
128.47488837010729
 30
0.0
 11
171.86469391092348
 21
131.47488837010729
 31
0.0
  0
LINE
  5
91
100
AcDbEntity
  8
Layer1
 62
256
370
-1
 48
1.0
  6
BYLAYER
100
AcDbLine
 10
144.81469352826389
 20
128.47488837010729
 30
0.0
 11
171.86469391092348
 21
128.47488837010729
 31
0.0
  0
LINE
  5
92
100
AcDbEntity
  8
Layer1
 62
256
370
-1
 48
1.0
  6
BYLAYER
100
AcDbLine
 10
144.81469391092378
 20
119.67248013754357
 30
0.0
 11
144.81469391092378
 21
128.47488837010729
 31
0.0
  0
LINE
  5
93
100
AcDbEntity
  8
Layer1
 62
256
370
-1
 48
1.0
  6
BYLAYER
100
AcDbLine
 10
144.81469391092378
 20
119.67248013754357
 30
0.0
 11
147.81469391092378
 21
119.67248013754357
 31
0.0
  0
LINE
  5
94
100
AcDbEntity
  8
Layer1
 62
256
370
-1
 48
1.0
  6
BYLAYER
100
AcDbLine
 10
147.81469391092378
 20
119.67248013754357
 30
0.0
 11
147.81469391092378
 21
101.77729660267056
 31
0.0
  0
LINE
  5
95
100
AcDbEntity
  8
Layer1
 62
256
370
-1
 48
1.0
  6
BYLAYER
100
AcDbLine
 10
144.81469391092378
 20
101.77729660267056
 30
0.0
 11
147.81469391092378
 21
101.77729660267056
 31
0.0
  0
LINE
  5
96
100
AcDbEntity
  8
Layer1
 62
256
370
-1
 48
1.0
  6
BYLAYER
100
AcDbLine
 10
144.81469391092378
 20
92.974888370107294
 30
0.0
 11
144.81469391092378
 21
101.77729660267056
 31
0.0
  0
LINE
  5
97
100
AcDbEntity
  8
Layer1
 62
256
370
-1
 48
1.0
  6
BYLAYER
100
AcDbLine
 10
171.86469391092348
 20
92.974888370107294
 30
0.0
 11
144.81469352826389
 21
92.974888370107294
 31
0.0
  0
LINE
  5
98
100
AcDbEntity
  8
Layer1
 62
256
370
-1
 48
1.0
  6
BYLAYER
100
AcDbLine
 10
171.86469391092348
 20
92.974888370107294
 30
0.0
 11
171.86469391092348
 21
89.974888370107294
 31
0.0
  0
LINE
  5
99
100
AcDbEntity
  8
Layer1
 62
256
370
-1
 48
1.0
  6
BYLAYER
100
AcDbLine
 10
208.36469391092348
 20
89.974888370107294
 30
0.0
 11
171.86469391092348
 21
89.974888370107294
 31
0.0
  0
LINE
  5
9A
100
AcDbEntity
  8
Layer1
 62
256
370
-1
 48
1.0
  6
BYLAYER
100
AcDbLine
 10
208.36469391092348
 20
92.974888370107294
 30
0.0
 11
208.36469391092348
 21
89.974888370107294
 31
0.0
  0
LINE
  5
9B
100
AcDbEntity
  8
Layer1
 62
256
370
-1
 48
1.0
  6
BYLAYER
100
AcDbLine
 10
231.41469352826391
 20
92.974888370107294
 30
0.0
 11
208.36469391092348
 21
92.974888370107294
 31
0.0
  0
LINE
  5
9C
100
AcDbEntity
  8
Layer1
 62
256
370
-1
 48
1.0
  6
BYLAYER
100
AcDbLine
 10
231.41469391092329
 20
92.974888370107294
 30
0.0
 11
231.41469391092329
 21
101.67729660267065
 31
0.0
  0
LINE
  5
9D
100
AcDbEntity
  8
Layer1
 62
256
370
-1
 48
1.0
  6
BYLAYER
100
AcDbLine
 10
234.4146939109242
 20
101.67729660267065
 30
0.0
 11
231.41469391092329
 21
101.67729660267065
 31
0.0
  0
LINE
  5
9E
100
AcDbEntity
  8
Layer1
 62
256
370
-1
 48
1.0
  6
BYLAYER
100
AcDbLine
 10
144.48262341423958
 20
77.079972941819307
 30
0.0
 11
153.1850316468043
 21
77.079972941819307
 31
0.0
  0
LINE
  5
9F
100
AcDbEntity
  8
Layer1
 62
256
370
-1
 48
1.0
  6
BYLAYER
100
AcDbLine
 10
144.58827346130369
 20
-6.0346962980906937
 30
0.0
 11
153.29068169386841
 21
-6.0346962980906937
 31
0.0
  0
LINE
  5
A0
100
AcDbEntity
  8
Layer1
 62
256
370
-1
 48
1.0
  6
BYLAYER
100
AcDbLine
 10
144.48262341423958
 20
77.079972500527418
 30
0.0
 11
144.48262341423958
 21
62.14803608837466
 31
0.0
  0
LINE
  5
A1
100
AcDbEntity
  8
Layer1
 62
256
370
-1
 48
1.0
  6
BYLAYER
100
AcDbLine
 10
144.58827346130369
 20
-6.0346967393825963
 30
0.0
 11
144.58827346130369
 21
-20.966633151535348
 31
0.0
  0
LINE
  5
A2
100
AcDbEntity
  8
Layer1
 62
256
370
-1
 48
1.0
  6
BYLAYER
100
AcDbLine
 10
141.48262341423958
 20
62.14803608837466
 30
0.0
 11
144.48262341423958
 21
62.14803608837466
 31
0.0
  0
LINE
  5
A3
100
AcDbEntity
  8
Layer1
 62
256
370
-1
 48
1.0
  6
BYLAYER
100
AcDbLine
 10
141.58827346130369
 20
-20.966633151535348
 30
0.0
 11
144.58827346130369
 21
-20.966633151535348
 31
0.0
  0
LINE
  5
A4
100
AcDbEntity
  8
Layer1
 62
256
370
-1
 48
1.0
  6
BYLAYER
100
AcDbLine
 10
141.48262341423958
 20
30.14803608837466
 30
0.0
 11
141.48262341423958
 21
62.14803608837466
 31
0.0
  0
LINE
  5
A5
100
AcDbEntity
  8
Layer1
 62
256
370
-1
 48
1.0
  6
BYLAYER
100
AcDbLine
 10
141.58827346130369
 20
-52.966633151535348
 30
0.0
 11
141.58827346130369
 21
-20.966633151535348
 31
0.0
  0
LINE
  5
A6
100
AcDbEntity
  8
Layer1
 62
256
370
-1
 48
1.0
  6
BYLAYER
100
AcDbLine
 10
144.48262341423958
 20
30.14803608837466
 30
0.0
 11
141.48262341423958
 21
30.14803608837466
 31
0.0
  0
LINE
  5
A7
100
AcDbEntity
  8
Layer1
 62
256
370
-1
 48
1.0
  6
BYLAYER
100
AcDbLine
 10
144.58827346130369
 20
-52.966633151535348
 30
0.0
 11
141.58827346130369
 21
-52.966633151535348
 31
0.0
  0
LINE
  5
A8
100
AcDbEntity
  8
Layer1
 62
256
370
-1
 48
1.0
  6
BYLAYER
100
AcDbLine
 10
144.48262341423958
 20
30.14803608837466
 30
0.0
 11
144.48262341423958
 21
15.152225500527415
 31
0.0
  0
LINE
  5
A9
100
AcDbEntity
  8
Layer1
 62
256
370
-1
 48
1.0
  6
BYLAYER
100
AcDbLine
 10
144.58827346130369
 20
-52.966633151535348
 30
0.0
 11
144.58827346130369
 21
-67.962443739382593
 31
0.0
  0
LINE
  5
AA
100
AcDbEntity
  8
Layer1
 62
256
370
-1
 48
1.0
  6
BYLAYER
100
AcDbLine
 10
144.48262341423958
 20
15.152225528041107
 30
0.0
 11
153.1850316468043
 21
15.152225528041107
 31
0.0
  0
LINE
  5
AB
100
AcDbEntity
  8
Layer1
 62
256
370
-1
 48
1.0
  6
BYLAYER
100
AcDbLine
 10
144.58827346130369
 20
-67.9624437118689
 30
0.0
 11
153.29068169386841
 21
-67.9624437118689
 31
0.0
  0
LINE
  5
AC
100
AcDbEntity
  8
Layer1
 62
256
370
-1
 48
1.0
  6
BYLAYER
100
AcDbLine
 10
153.1850316468043
 20
12.216099234930233
 30
0.0
 11
153.1850316468043
 21
15.152225528041107
 31
0.0
  0
LINE
  5
AD
100
AcDbEntity
  8
Layer1
 62
256
370
-1
 48
1.0
  6
BYLAYER
100
AcDbLine
 10
153.29068169386841
 20
-70.898570004979774
 30
0.0
 11
153.29068169386841
 21
-67.9624437118689
 31
0.0
  0
LINE
  5
AE
100
AcDbEntity
  8
Layer1
 62
256
370
-1
 48
1.0
  6
BYLAYER
100
AcDbLine
 10
153.1850316468043
 20
12.216099234930233
 30
0.0
 11
171.28021518167714
 21
12.216099234930233
 31
0.0
  0
LINE
  5
AF
100
AcDbEntity
  8
Layer1
 62
256
370
-1
 48
1.0
  6
BYLAYER
100
AcDbLine
 10
153.29068169386841
 20
-70.898570004979774
 30
0.0
 11
171.38586522874121
 21
-70.898570004979774
 31
0.0
  0
LINE
  5
B0
100
AcDbEntity
  8
Layer1
 62
256
370
-1
 48
1.0
  6
BYLAYER
100
AcDbLine
 10
171.28021518167668
 20
12.216099234930233
 30
0.0
 11
171.28021518167668
 21
15.152225528041107
 31
0.0
  0
LINE
  5
B1
100
AcDbEntity
  8
Layer1
 62
256
370
-1
 48
1.0
  6
BYLAYER
100
AcDbLine
 10
171.38586522874078
 20
-70.898570004979774
 30
0.0
 11
171.38586522874078
 21
-67.9624437118689
 31
0.0
  0
LINE
  5
B2
100
AcDbEntity
  8
Layer1
 62
256
370
-1
 48
1.0
  6
BYLAYER
100
AcDbLine
 10
179.98262341423958
 20
15.152225528041107
 30
0.0
 11
171.28021518167668
 21
15.152225528041107
 31
0.0
  0
LINE
  5
B3
100
AcDbEntity
  8
Layer1
 62
256
370
-1
 48
1.0
  6
BYLAYER
100
AcDbLine
 10
180.08827346130369
 20
-67.9624437118689
 30
0.0
 11
171.38586522874078
 21
-67.9624437118689
 31
0.0
  0
LINE
  5
B4
100
AcDbEntity
  8
Layer1
 62
256
370
-1
 48
1.0
  6
BYLAYER
100
AcDbLine
 10
179.98262341423958
 20
30.14803608837466
 30
0.0
 11
179.98262341423958
 21
15.152225500527415
 31
0.0
  0
LINE
  5
B5
100
AcDbEntity
  8
Layer1
 62
256
370
-1
 48
1.0
  6
BYLAYER
100
AcDbLine
 10
180.08827346130369
 20
-52.966633151535348
 30
0.0
 11
180.08827346130369
 21
-67.962443739382593
 31
0.0
  0
LINE
  5
B6
100
AcDbEntity
  8
Layer1
 62
256
370
-1
 48
1.0
  6
BYLAYER
100
AcDbLine
 10
179.98262341423958
 20
30.14803608837466
 30
0.0
 11
182.98262341423958
 21
30.14803608837466
 31
0.0
  0
LINE
  5
B7
100
AcDbEntity
  8
Layer1
 62
256
370
-1
 48
1.0
  6
BYLAYER
100
AcDbLine
 10
180.08827346130369
 20
-52.966633151535348
 30
0.0
 11
183.08827346130369
 21
-52.966633151535348
 31
0.0
  0
LINE
  5
B8
100
AcDbEntity
  8
Layer1
 62
256
370
-1
 48
1.0
  6
BYLAYER
100
AcDbLine
 10
182.98262341423958
 20
30.14803608837466
 30
0.0
 11
182.98262341423958
 21
62.14803608837466
 31
0.0
  0
LINE
  5
B9
100
AcDbEntity
  8
Layer1
 62
256
370
-1
 48
1.0
  6
BYLAYER
100
AcDbLine
 10
183.08827346130369
 20
-52.966633151535348
 30
0.0
 11
183.08827346130369
 21
-20.966633151535348
 31
0.0
  0
LINE
  5
BA
100
AcDbEntity
  8
Layer1
 62
256
370
-1
 48
1.0
  6
BYLAYER
100
AcDbLine
 10
179.98262341423958
 20
62.14803608837466
 30
0.0
 11
182.98262341423958
 21
62.14803608837466
 31
0.0
  0
LINE
  5
BB
100
AcDbEntity
  8
Layer1
 62
256
370
-1
 48
1.0
  6
BYLAYER
100
AcDbLine
 10
180.08827346130369
 20
-20.966633151535348
 30
0.0
 11
183.08827346130369
 21
-20.966633151535348
 31
0.0
  0
LINE
  5
BC
100
AcDbEntity
  8
Layer1
 62
256
370
-1
 48
1.0
  6
BYLAYER
100
AcDbLine
 10
179.98262341423958
 20
77.079972500527418
 30
0.0
 11
179.98262341423958
 21
62.14803608837466
 31
0.0
  0
LINE
  5
BD
100
AcDbEntity
  8
Layer1
 62
256
370
-1
 48
1.0
  6
BYLAYER
100
AcDbLine
 10
180.08827346130369
 20
-6.0346967393825963
 30
0.0
 11
180.08827346130369
 21
-20.966633151535348
 31
0.0
  0
LINE
  5
BE
100
AcDbEntity
  8
Layer1
 62
256
370
-1
 48
1.0
  6
BYLAYER
100
AcDbLine
 10
179.98262341423958
 20
77.079972941819307
 30
0.0
 11
171.28021518167668
 21
77.079972941819307
 31
0.0
  0
LINE
  5
BF
100
AcDbEntity
  8
Layer1
 62
256
370
-1
 48
1.0
  6
BYLAYER
100
AcDbLine
 10
180.08827346130369
 20
-6.0346962980906937
 30
0.0
 11
171.38586522874078
 21
-6.0346962980906937
 31
0.0
  0
LINE
  5
C0
100
AcDbEntity
  8
Layer1
 62
256
370
-1
 48
1.0
  6
BYLAYER
100
AcDbLine
 10
171.28021518167668
 20
80.079972941819307
 30
0.0
 11
171.28021518167668
 21
77.079972941819307
 31
0.0
  0
LINE
  5
C1
100
AcDbEntity
  8
Layer1
 62
256
370
-1
 48
1.0
  6
BYLAYER
100
AcDbLine
 10
171.38586522874078
 20
-3.0346962980906937
 30
0.0
 11
171.38586522874078
 21
-6.0346962980906937
 31
0.0
  0
LINE
  5
C2
100
AcDbEntity
  8
Layer1
 62
256
370
-1
 48
1.0
  6
BYLAYER
100
AcDbLine
 10
153.29068169386841
 20
-3.0346962980906937
 30
0.0
 11
171.38586522874121
 21
-3.0346962980906937
 31
0.0
  0
LINE
  5
C3
100
AcDbEntity
  8
Layer1
 62
256
370
-1
 48
1.0
  6
BYLAYER
100
AcDbLine
 10
153.1850316468043
 20
80.079972941819307
 30
0.0
 11
171.28021518167714
 21
80.079972941819307
 31
0.0
  0
LINE
  5
C4
100
AcDbEntity
  8
Layer1
 62
256
370
-1
 48
1.0
  6
BYLAYER
100
AcDbLine
 10
153.29068169386841
 20
-3.0346962980906937
 30
0.0
 11
153.29068169386841
 21
-6.0346962980906937
 31
0.0
  0
LINE
  5
C5
100
AcDbEntity
  8
Layer1
 62
256
370
-1
 48
1.0
  6
BYLAYER
100
AcDbLine
 10
153.1850316468043
 20
80.079972941819307
 30
0.0
 11
153.1850316468043
 21
77.079972941819307
 31
0.0
  0
LINE
  5
C6
100
AcDbEntity
  8
Layer1
 62
256
370
-1
 48
1.0
  6
BYLAYER
100
AcDbLine
 10
122.3031370110894
 20
86.800808623548562
 30
0.0
 11
121.8263811432962
 21
87.422128967107653
 31
0.0
  0
LINE
  5
C7
100
AcDbEntity
  8
Layer1
 62
256
370
-1
 48
1.0
  6
BYLAYER
100
AcDbLine
 10
121.8263811432962
 20
87.422128967107653
 30
0.0
 11
121.2050607997362
 21
87.89888483490148
 31
0.0
  0
LINE
  5
C8
100
AcDbEntity
  8
Layer1
 62
256
370
-1
 48
1.0
  6
BYLAYER
100
AcDbLine
 10
121.2050607997362
 20
87.89888483490148
 30
0.0
 11
120.48151793504439
 21
88.198586102415391
 31
0.0
  0
LINE
  5
C9
100
AcDbEntity
  8
Layer1
 62
256
370
-1
 48
1.0
  6
BYLAYER
100
AcDbLine
 10
120.48151793504439
 20
88.198586102415391
 30
0.0
 11
119.7050607997362
 21
88.300808623548562
 31
0.0
  0
LINE
  5
CA
100
AcDbEntity
  8
Layer1
 62
256
370
-1
 48
1.0
  6
BYLAYER
100
AcDbLine
 10
23.905060528263874
 20
88.300808623548562
 30
0.0
 11
119.70506052826389
 21
88.300808623548562
 31
0.0
  0
LINE
  5
CB
100
AcDbEntity
  8
Layer1
 62
256
370
-1
 48
1.0
  6
BYLAYER
100
AcDbLine
 10
23.905060799736106
 20
88.300808623548562
 30
0.0
 11
23.128603664428766
 21
88.198586102415391
 31
0.0
  0
LINE
  5
CC
100
AcDbEntity
  8
Layer1
 62
256
370
-1
 48
1.0
  6
BYLAYER
100
AcDbLine
 10
23.128603664428766
 20
88.198586102415391
 30
0.0
 11
22.405060799736106
 21
87.89888483490148
 31
0.0
  0
LINE
  5
CD
100
AcDbEntity
  8
Layer1
 62
256
370
-1
 48
1.0
  6
BYLAYER
100
AcDbLine
 10
22.405060799736106
 20
87.89888483490148
 30
0.0
 11
21.783740456176503
 21
87.422128967107653
 31
0.0
  0
LINE
  5
CE
100
AcDbEntity
  8
Layer1
 62
256
370
-1
 48
1.0
  6
BYLAYER
100
AcDbLine
 10
21.783740456176503
 20
87.422128967107653
 30
0.0
 11
21.306984588382903
 21
86.800808623548562
 31
0.0
  0
LINE
  5
CF
100
AcDbEntity
  8
Layer1
 62
256
370
-1
 48
1.0
  6
BYLAYER
100
AcDbLine
 10
21.306984588382903
 20
86.800808623548562
 30
0.0
 11
21.007283320869163
 21
86.07726575885539
 31
0.0
  0
LINE
  5
D0
100
AcDbEntity
  8
Layer1
 62
256
370
-1
 48
1.0
  6
BYLAYER
100
AcDbLine
 10
21.007283320869163
 20
86.07726575885539
 30
0.0
 11
20.905060799736106
 21
85.300808623548562
 31
0.0
  0
LINE
  5
D1
100
AcDbEntity
  8
Layer1
 62
256
370
-1
 48
1.0
  6
BYLAYER
100
AcDbLine
 10
20.905060799736106
 20
11.236934743999967
 30
0.0
 11
20.905060799736106
 21
85.300808743999966
 31
0.0
  0
LINE
  5
D2
100
AcDbEntity
  8
Layer1
 62
256
370
-1
 48
1.0
  6
BYLAYER
100
AcDbLine
 10
20.905060799736106
 20
11.236934916659436
 30
0.0
 11
21.007283320868765
 21
10.460477781351472
 31
0.0
  0
LINE
  5
D3
100
AcDbEntity
  8
Layer1
 62
256
370
-1
 48
1.0
  6
BYLAYER
100
AcDbLine
 10
21.007283320868765
 20
10.460477781351472
 30
0.0
 11
21.306984588382903
 21
9.7369349166594361
 31
0.0
  0
LINE
  5
D4
100
AcDbEntity
  8
Layer1
 62
256
370
-1
 48
1.0
  6
BYLAYER
100
AcDbLine
 10
21.306984588382903
 20
9.7369349166594361
 30
0.0
 11
21.783740456176503
 21
9.1156145730994353
 31
0.0
  0
LINE
  5
D5
100
AcDbEntity
  8
Layer1
 62
256
370
-1
 48
1.0
  6
BYLAYER
100
AcDbLine
 10
21.783740456176503
 20
9.1156145730994353
 30
0.0
 11
22.405060799736106
 21
8.6388587053056085
 31
0.0
  0
LINE
  5
D6
100
AcDbEntity
  8
Layer1
 62
256
370
-1
 48
1.0
  6
BYLAYER
100
AcDbLine
 10
22.405060799736106
 20
8.6388587053056085
 30
0.0
 11
23.128603664428766
 21
8.3391574377914708
 31
0.0
  0
LINE
  5
D7
100
AcDbEntity
  8
Layer1
 62
256
370
-1
 48
1.0
  6
BYLAYER
100
AcDbLine
 10
23.128603664428766
 20
8.3391574377914708
 30
0.0
 11
23.905060799736503
 21
8.2369349166594361
 31
0.0
  0
LINE
  5
D8
100
AcDbEntity
  8
Layer1
 62
256
370
-1
 48
1.0
  6
BYLAYER
100
AcDbLine
 10
119.70506052826389
 20
8.2369349166594361
 30
0.0
 11
23.905060528263874
 21
8.2369349166594361
 31
0.0
  0
LINE
  5
D9
100
AcDbEntity
  8
Layer1
 62
256
370
-1
 48
1.0
  6
BYLAYER
100
AcDbLine
 10
119.7050607997362
 20
8.2369349166594361
 30
0.0
 11
120.48151793504439
 21
8.3391574377914708
 31
0.0
  0
LINE
  5
DA
100
AcDbEntity
  8
Layer1
 62
256
370
-1
 48
1.0
  6
BYLAYER
100
AcDbLine
 10
120.48151793504439
 20
8.3391574377914708
 30
0.0
 11
121.2050607997362
 21
8.6388587053056085
 31
0.0
  0
LINE
  5
DB
100
AcDbEntity
  8
Layer1
 62
256
370
-1
 48
1.0
  6
BYLAYER
100
AcDbLine
 10
121.2050607997362
 20
8.6388587053056085
 30
0.0
 11
121.8263811432962
 21
9.1156145730994353
 31
0.0
  0
LINE
  5
DC
100
AcDbEntity
  8
Layer1
 62
256
370
-1
 48
1.0
  6
BYLAYER
100
AcDbLine
 10
121.8263811432962
 20
9.1156145730994353
 30
0.0
 11
122.3031370110894
 21
9.7369349166594361
 31
0.0
  0
LINE
  5
DD
100
AcDbEntity
  8
Layer1
 62
256
370
-1
 48
1.0
  6
BYLAYER
100
AcDbLine
 10
122.3031370110894
 20
9.7369349166594361
 30
0.0
 11
122.60283827860349
 21
10.460477781351472
 31
0.0
  0
LINE
  5
DE
100
AcDbEntity
  8
Layer1
 62
256
370
-1
 48
1.0
  6
BYLAYER
100
AcDbLine
 10
122.60283827860309
 20
10.460477781351472
 30
0.0
 11
122.7050607997362
 21
11.236934916659436
 31
0.0
  0
LINE
  5
DF
100
AcDbEntity
  8
Layer1
 62
256
370
-1
 48
1.0
  6
BYLAYER
100
AcDbLine
 10
122.7050607997362
 20
85.300808743999966
 30
0.0
 11
122.7050607997362
 21
11.236934743999967
 31
0.0
  0
LINE
  5
E0
100
AcDbEntity
  8
Layer1
 62
256
370
-1
 48
1.0
  6
BYLAYER
100
AcDbLine
 10
122.7050607997362
 20
85.300808623548562
 30
0.0
 11
122.60283827860349
 21
86.07726575885539
 31
0.0
  0
LINE
  5
E1
100
AcDbEntity
  8
Layer1
 62
256
370
-1
 48
1.0
  6
BYLAYER
100
AcDbLine
 10
122.3031370110894
 20
86.800808623548562
 30
0.0
 11
122.60283827860349
 21
86.07726575885539
 31
0.0
  0
LINE
  5
E2
100
AcDbEntity
  8
Layer1
 62
256
370
-1
 48
1.0
  6
BYLAYER
100
AcDbLine
 10
54.005060528263897
 20
79.325808743999957
 30
0.0
 11
90.605060528263891
 21
79.325808743999957
 31
0.0
  0
LINE
  5
E3
100
AcDbEntity
  8
Layer1
 62
256
370
-1
 48
1.0
  6
BYLAYER
100
AcDbLine
 10
90.605060528263891
 20
79.325808743999957
 30
0.0
 11
90.605060528263891
 21
82.27580874399996
 31
0.0
  0
LINE
  5
E4
100
AcDbEntity
  8
Layer1
 62
256
370
-1
 48
1.0
  6
BYLAYER
100
AcDbLine
 10
90.605060528263891
 20
82.27580874399996
 30
0.0
 11
54.005060528263897
 21
82.27580874399996
 31
0.0
  0
LINE
  5
E5
100
AcDbEntity
  8
Layer1
 62
256
370
-1
 48
1.0
  6
BYLAYER
100
AcDbLine
 10
54.005060528263897
 20
82.27580874399996
 30
0.0
 11
54.005060528263897
 21
79.325808743999957
 31
0.0
  0
LINE
  5
E6
100
AcDbEntity
  8
Layer1
 62
256
370
-1
 48
1.0
  6
BYLAYER
100
AcDbLine
 10
90.605060528263891
 20
14.261934743999959
 30
0.0
 11
90.605060528263891
 21
17.211934743999961
 31
0.0
  0
LINE
  5
E7
100
AcDbEntity
  8
Layer1
 62
256
370
-1
 48
1.0
  6
BYLAYER
100
AcDbLine
 10
90.605060528263891
 20
17.211934743999961
 30
0.0
 11
54.005060528263897
 21
17.211934743999961
 31
0.0
  0
LINE
  5
E8
100
AcDbEntity
  8
Layer1
 62
256
370
-1
 48
1.0
  6
BYLAYER
100
AcDbLine
 10
54.005060528263897
 20
17.211934743999961
 30
0.0
 11
54.005060528263897
 21
14.261934743999959
 31
0.0
  0
LINE
  5
E9
100
AcDbEntity
  8
Layer1
 62
256
370
-1
 48
1.0
  6
BYLAYER
100
AcDbLine
 10
54.005060528263897
 20
14.261934743999959
 30
0.0
 11
90.605060528263891
 21
14.261934743999959
 31
0.0
  0
LINE
  5
EA
100
AcDbEntity
  8
Layer1
 62
256
370
-1
 48
1.0
  6
BYLAYER
100
AcDbLine
 10
122.7050607997362
 20
177.94540057134049
 30
0.0
 11
122.60283827860349
 21
178.72185770664754
 31
0.0
  0
LINE
  5
EB
100
AcDbEntity
  8
Layer1
 62
256
370
-1
 48
1.0
  6
BYLAYER
100
AcDbLine
 10
122.60283827860309
 20
178.72185770664754
 30
0.0
 11
122.30313701108889
 21
179.44540057134049
 31
0.0
  0
LINE
  5
EC
100
AcDbEntity
  8
Layer1
 62
256
370
-1
 48
1.0
  6
BYLAYER
100
AcDbLine
 10
122.3031370110894
 20
179.44540057134049
 30
0.0
 11
121.8263811432962
 21
180.06672091489958
 31
0.0
  0
LINE
  5
ED
100
AcDbEntity
  8
Layer1
 62
256
370
-1
 48
1.0
  6
BYLAYER
100
AcDbLine
 10
121.82638114329581
 20
180.06672091489958
 30
0.0
 11
121.2050607997358
 21
180.54347678269363
 31
0.0
  0
LINE
  5
EE
100
AcDbEntity
  8
Layer1
 62
256
370
-1
 48
1.0
  6
BYLAYER
100
AcDbLine
 10
121.2050607997362
 20
180.54347678269363
 30
0.0
 11
120.48151793504348
 21
180.84317805020754
 31
0.0
  0
LINE
  5
EF
100
AcDbEntity
  8
Layer1
 62
256
370
-1
 48
1.0
  6
BYLAYER
100
AcDbLine
 10
120.48151793504348
 20
180.84317805020754
 30
0.0
 11
119.7050607997362
 21
180.94540057134049
 31
0.0
  0
LINE
  5
F0
100
AcDbEntity
  8
Layer1
 62
256
370
-1
 48
1.0
  6
BYLAYER
100
AcDbLine
 10
23.905060528263874
 20
180.94540057134049
 30
0.0
 11
119.70506052826389
 21
180.94540057134049
 31
0.0
  0
LINE
  5
F1
100
AcDbEntity
  8
Layer1
 62
256
370
-1
 48
1.0
  6
BYLAYER
100
AcDbLine
 10
23.128603664428766
 20
180.84317805020754
 30
0.0
 11
23.905060799736106
 21
180.94540057134049
 31
0.0
  0
LINE
  5
F2
100
AcDbEntity
  8
Layer1
 62
256
370
-1
 48
1.0
  6
BYLAYER
100
AcDbLine
 10
22.405060799736106
 20
180.54347678269363
 30
0.0
 11
23.128603664428766
 21
180.84317805020754
 31
0.0
  0
LINE
  5
F3
100
AcDbEntity
  8
Layer1
 62
256
370
-1
 48
1.0
  6
BYLAYER
100
AcDbLine
 10
21.783740456176105
 20
180.06672091489958
 30
0.0
 11
22.405060799736106
 21
180.54347678269363
 31
0.0
  0
LINE
  5
F4
100
AcDbEntity
  8
Layer1
 62
256
370
-1
 48
1.0
  6
BYLAYER
100
AcDbLine
 10
21.306984588382903
 20
179.44540057134049
 30
0.0
 11
21.783740456176105
 21
180.06672091489958
 31
0.0
  0
LINE
  5
F5
100
AcDbEntity
  8
Layer1
 62
256
370
-1
 48
1.0
  6
BYLAYER
100
AcDbLine
 10
21.007283320868765
 20
178.72185770664754
 30
0.0
 11
21.306984588382903
 21
179.44540057134049
 31
0.0
  0
LINE
  5
F6
100
AcDbEntity
  8
Layer1
 62
256
370
-1
 48
1.0
  6
BYLAYER
100
AcDbLine
 10
20.905060799736106
 20
177.94540057134049
 30
0.0
 11
21.007283320868765
 21
178.72185770664754
 31
0.0
  0
LINE
  5
F7
100
AcDbEntity
  8
Layer1
 62
256
370
-1
 48
1.0
  6
BYLAYER
100
AcDbLine
 10
20.905060799736106
 20
103.88152674399996
 30
0.0
 11
20.905060799736106
 21
177.94540074399995
 31
0.0
  0
LINE
  5
F8
100
AcDbEntity
  8
Layer1
 62
256
370
-1
 48
1.0
  6
BYLAYER
100
AcDbLine
 10
21.007283320868765
 20
103.10506972914339
 30
0.0
 11
20.905060799736106
 21
103.88152686445159
 31
0.0
  0
LINE
  5
F9
100
AcDbEntity
  8
Layer1
 62
256
370
-1
 48
1.0
  6
BYLAYER
100
AcDbLine
 10
21.306984588382903
 20
102.38152686445159
 30
0.0
 11
21.007283320868765
 21
103.10506972914339
 31
0.0
  0
LINE
  5
FA
100
AcDbEntity
  8
Layer1
 62
256
370
-1
 48
1.0
  6
BYLAYER
100
AcDbLine
 10
21.783740456176105
 20
101.76020652089159
 30
0.0
 11
21.306984588382505
 21
102.38152686445159
 31
0.0
  0
LINE
  5
FB
100
AcDbEntity
  8
Layer1
 62
256
370
-1
 48
1.0
  6
BYLAYER
100
AcDbLine
 10
22.405060799736106
 20
101.28345065309844
 30
0.0
 11
21.783740456176503
 21
101.76020652089159
 31
0.0
  0
LINE
  5
FC
100
AcDbEntity
  8
Layer1
 62
256
370
-1
 48
1.0
  6
BYLAYER
100
AcDbLine
 10
23.128603664428312
 20
100.98374938558453
 30
0.0
 11
22.405060799736106
 21
101.28345065309844
 31
0.0
  0
LINE
  5
FD
100
AcDbEntity
  8
Layer1
 62
256
370
-1
 48
1.0
  6
BYLAYER
100
AcDbLine
 10
23.905060799736106
 20
100.88152686445159
 30
0.0
 11
23.128603664428312
 21
100.98374938558453
 31
0.0
  0
LINE
  5
FE
100
AcDbEntity
  8
Layer1
 62
256
370
-1
 48
1.0
  6
BYLAYER
100
AcDbLine
 10
119.70506052826389
 20
100.88152686445159
 30
0.0
 11
23.905060528263874
 21
100.88152686445159
 31
0.0
  0
LINE
  5
FF
100
AcDbEntity
  8
Layer1
 62
256
370
-1
 48
1.0
  6
BYLAYER
100
AcDbLine
 10
120.48151793504348
 20
100.98374938558362
 30
0.0
 11
119.7050607997358
 21
100.88152686445159
 31
0.0
  0
LINE
  5
100
100
AcDbEntity
  8
Layer1
 62
256
370
-1
 48
1.0
  6
BYLAYER
100
AcDbLine
 10
121.2050607997362
 20
101.28345065309753
 30
0.0
 11
120.48151793504348
 21
100.98374938558362
 31
0.0
  0
LINE
  5
101
100
AcDbEntity
  8
Layer1
 62
256
370
-1
 48
1.0
  6
BYLAYER
100
AcDbLine
 10
121.82638114329581
 20
101.76020652089159
 30
0.0
 11
121.2050607997358
 21
101.28345065309753
 31
0.0
  0
LINE
  5
102
100
AcDbEntity
  8
Layer1
 62
256
370
-1
 48
1.0
  6
BYLAYER
100
AcDbLine
 10
122.3031370110894
 20
102.38152686445159
 30
0.0
 11
121.82638114329581
 21
101.76020652089159
 31
0.0
  0
LINE
  5
103
100
AcDbEntity
  8
Layer1
 62
256
370
-1
 48
1.0
  6
BYLAYER
100
AcDbLine
 10
122.60283827860309
 20
103.10506972914339
 30
0.0
 11
122.3031370110894
 21
102.38152686445159
 31
0.0
  0
LINE
  5
104
100
AcDbEntity
  8
Layer1
 62
256
370
-1
 48
1.0
  6
BYLAYER
100
AcDbLine
 10
122.7050607997362
 20
103.88152686445159
 30
0.0
 11
122.60283827860309
 21
103.10506972914339
 31
0.0
  0
LINE
  5
105
100
AcDbEntity
  8
Layer1
 62
256
370
-1
 48
1.0
  6
BYLAYER
100
AcDbLine
 10
122.7050607997362
 20
177.94540074399995
 30
0.0
 11
122.7050607997362
 21
103.88152674399996
 31
0.0
  0
LINE
  5
106
100
AcDbEntity
  8
Layer1
 62
256
370
-1
 48
1.0
  6
BYLAYER
100
AcDbLine
 10
92.910983635251398
 20
126.61744741489321
 30
0.0
 11
99.990931047264894
 21
126.61744741489321
 31
0.0
  0
LINE
  5
107
100
AcDbEntity
  8
Layer1
 62
256
370
-1
 48
1.0
  6
BYLAYER
100
AcDbLine
 10
92.910983635251398
 20
117.03899995376497
 30
0.0
 11
92.910983635251398
 21
126.61744741489321
 31
0.0
  0
LINE
  5
108
100
AcDbEntity
  8
Layer1
 62
256
370
-1
 48
1.0
  6
BYLAYER
100
AcDbLine
 10
99.990931047264894
 20
117.03899995376497
 30
0.0
 11
92.910983635250886
 21
117.03899995376497
 31
0.0
  0
LINE
  5
109
100
AcDbEntity
  8
Layer1
 62
256
370
-1
 48
1.0
  6
BYLAYER
100
AcDbLine
 10
99.990931047264894
 20
117.03899995376497
 30
0.0
 11
99.990931047264894
 21
126.61744741489321
 31
0.0
  0
CIRCLE
  5
10A
100
AcDbEntity
  8
Layer1
 62
256
370
-1
 48
1.0
  6
BYLAYER
100
AcDbCircle
 10
108.91092187663068
 20
57.196303859839361
 30
0.0
 40
1.5505393521965041
  0
CIRCLE
  5
10B
100
AcDbEntity
  8
Layer1
 62
256
370
-1
 48
1.0
  6
BYLAYER
100
AcDbCircle
 10
58.610921876630613
 20
72.141732039085753
 30
0.0
 40
1.5505393521965041
  0
CIRCLE
  5
10C
100
AcDbEntity
  8
Layer1
 62
256
370
-1
 48
1.0
  6
BYLAYER
100
AcDbCircle
 10
37.148769528263898
 20
118.70523574399996
 30
0.0
 40
2.5
  0
CIRCLE
  5
10D
100
AcDbEntity
  8
Layer1
 62
256
370
-1
 48
1.0
  6
BYLAYER
100
AcDbCircle
 10
44.852869528263881
 20
118.70523574399996
 30
0.0
 40
2.5
  0
CIRCLE
  5
10E
100
AcDbEntity
  8
Layer1
 62
256
370
-1
 48
1.0
  6
BYLAYER
100
AcDbCircle
 10
54.102216000000006
 20
123.08603874399996
 30
0.0
 40
2.5
  0
CIRCLE
  5
10F
100
AcDbEntity
  8
Layer1
 62
256
370
-1
 48
1.0
  6
BYLAYER
100
AcDbCircle
 10
54.102216000000006
 20
116.30522274399996
 30
0.0
 40
2.5
  0
CIRCLE
  5
110
100
AcDbEntity
  8
Layer1
 62
256
370
-1
 48
1.0
  6
BYLAYER
100
AcDbCircle
 10
62.852869528263881
 20
118.70523574399996
 30
0.0
 40
2.5
  0
CIRCLE
  5
111
100
AcDbEntity
  8
Layer1
 62
256
370
-1
 48
1.0
  6
BYLAYER
100
AcDbCircle
 10
108.91095583944849
 20
29.457094009563832
 30
0.0
 40
1.5505733424627119
  0
CIRCLE
  5
112
100
AcDbEntity
  8
Layer1
 62
256
370
-1
 48
1.0
  6
BYLAYER
100
AcDbCircle
 10
56.81095583944844
 20
24.357094009563838
 30
0.0
 40
1.5505733424627119
  0
LINE
  5
113
100
AcDbEntity
  8
Layer1
 62
256
370
-1
 48
1.0
  6
BYLAYER
100
AcDbLine
 10
206.59767872191878
 20
78.678225185291979
 30
0.0
 11
206.59767872191878
 21
75.678225185291979
 31
0.0
  0
LINE
  5
114
100
AcDbEntity
  8
Layer1
 62
256
370
-1
 48
1.0
  6
BYLAYER
100
AcDbLine
 10
206.59767872191878
 20
78.678225185291979
 30
0.0
 11
197.7976785282639
 21
78.678225185291979
 31
0.0
  0
LINE
  5
115
100
AcDbEntity
  8
Layer1
 62
256
370
-1
 48
1.0
  6
BYLAYER
100
AcDbLine
 10
197.7976785282639
 20
78.678224743999962
 30
0.0
 11
197.7976785282639
 21
60.746288331847438
 31
0.0
  0
LINE
  5
116
100
AcDbEntity
  8
Layer1
 62
256
370
-1
 48
1.0
  6
BYLAYER
100
AcDbLine
 10
194.7976785282639
 20
60.746288331847438
 30
0.0
 11
197.7976785282639
 21
60.746288331847438
 31
0.0
  0
LINE
  5
117
100
AcDbEntity
  8
Layer1
 62
256
370
-1
 48
1.0
  6
BYLAYER
100
AcDbLine
 10
194.7976785282639
 20
28.746288331847438
 30
0.0
 11
194.7976785282639
 21
60.746288331847438
 31
0.0
  0
LINE
  5
118
100
AcDbEntity
  8
Layer1
 62
256
370
-1
 48
1.0
  6
BYLAYER
100
AcDbLine
 10
197.7976785282639
 20
28.746288331847438
 30
0.0
 11
194.7976785282639
 21
28.746288331847438
 31
0.0
  0
LINE
  5
119
100
AcDbEntity
  8
Layer1
 62
256
370
-1
 48
1.0
  6
BYLAYER
100
AcDbLine
 10
197.7976785282639
 20
10.814351743999964
 30
0.0
 11
197.7976785282639
 21
28.746288331847438
 31
0.0
  0
LINE
  5
11A
100
AcDbEntity
  8
Layer1
 62
256
370
-1
 48
1.0
  6
BYLAYER
100
AcDbLine
 10
206.59767872191878
 20
10.814351478402898
 30
0.0
 11
197.7976785282639
 21
10.814351478402898
 31
0.0
  0
LINE
  5
11B
100
AcDbEntity
  8
Layer1
 62
256
370
-1
 48
1.0
  6
BYLAYER
100
AcDbLine
 10
206.59767872191878
 20
10.814351478402898
 30
0.0
 11
206.59767872191878
 21
13.814351478402898
 31
0.0
  0
LINE
  5
11C
100
AcDbEntity
  8
Layer1
 62
256
370
-1
 48
1.0
  6
BYLAYER
100
AcDbLine
 10
206.59767872191878
 20
13.814351478402898
 30
0.0
 11
224.4928622567918
 21
13.814351478402898
 31
0.0
  0
LINE
  5
11D
100
AcDbEntity
  8
Layer1
 62
256
370
-1
 48
1.0
  6
BYLAYER
100
AcDbLine
 10
224.4928622567914
 20
10.814351478402898
 30
0.0
 11
224.4928622567914
 21
13.814351478402898
 31
0.0
  0
LINE
  5
11E
100
AcDbEntity
  8
Layer1
 62
256
370
-1
 48
1.0
  6
BYLAYER
100
AcDbLine
 10
233.2928625282639
 20
10.814351478402898
 30
0.0
 11
224.4928622567914
 21
10.814351478402898
 31
0.0
  0
LINE
  5
11F
100
AcDbEntity
  8
Layer1
 62
256
370
-1
 48
1.0
  6
BYLAYER
100
AcDbLine
 10
233.2928625282639
 20
28.746288331847438
 30
0.0
 11
233.2928625282639
 21
10.814351743999964
 31
0.0
  0
LINE
  5
120
100
AcDbEntity
  8
Layer1
 62
256
370
-1
 48
1.0
  6
BYLAYER
100
AcDbLine
 10
233.2928625282639
 20
28.746288331847438
 30
0.0
 11
236.2928625282639
 21
28.746288331847438
 31
0.0
  0
LINE
  5
121
100
AcDbEntity
  8
Layer1
 62
256
370
-1
 48
1.0
  6
BYLAYER
100
AcDbLine
 10
236.2928625282639
 20
28.746288331847438
 30
0.0
 11
236.2928625282639
 21
60.746288331847438
 31
0.0
  0
LINE
  5
122
100
AcDbEntity
  8
Layer1
 62
256
370
-1
 48
1.0
  6
BYLAYER
100
AcDbLine
 10
233.2928625282639
 20
60.746288331847438
 30
0.0
 11
236.2928625282639
 21
60.746288331847438
 31
0.0
  0
LINE
  5
123
100
AcDbEntity
  8
Layer1
 62
256
370
-1
 48
1.0
  6
BYLAYER
100
AcDbLine
 10
233.2928625282639
 20
78.678224743999962
 30
0.0
 11
233.2928625282639
 21
60.746288331847438
 31
0.0
  0
LINE
  5
124
100
AcDbEntity
  8
Layer1
 62
256
370
-1
 48
1.0
  6
BYLAYER
100
AcDbLine
 10
233.2928625282639
 20
78.678225185291979
 30
0.0
 11
224.4928622567914
 21
78.678225185291979
 31
0.0
  0
LINE
  5
125
100
AcDbEntity
  8
Layer1
 62
256
370
-1
 48
1.0
  6
BYLAYER
100
AcDbLine
 10
224.4928622567918
 20
78.678225185291979
 30
0.0
 11
224.4928622567918
 21
75.678225185291979
 31
0.0
  0
LINE
  5
126
100
AcDbEntity
  8
Layer1
 62
256
370
-1
 48
1.0
  6
BYLAYER
100
AcDbLine
 10
224.4928622567918
 20
75.678225185291979
 30
0.0
 11
206.59767872191878
 21
75.678225185291979
 31
0.0
  0
CIRCLE
  5
127
100
AcDbEntity
  8
Layer1
 62
256
370
-1
 48
1.0
  6
BYLAYER
100
AcDbCircle
 10
24.405060799736106
 20
11.73693491665955
 30
0.0
 40
1.5
  0
CIRCLE
  5
128
100
AcDbEntity
  8
Layer1
 62
256
370
-1
 48
1.0
  6
BYLAYER
100
AcDbCircle
 10
119.2050607997362
 20
11.73693491665955
 30
0.0
 40
1.5
  0
CIRCLE
  5
129
100
AcDbEntity
  8
Layer1
 62
256
370
-1
 48
1.0
  6
BYLAYER
100
AcDbCircle
 10
24.405060799736106
 20
84.800808623548903
 30
0.0
 40
1.5
  0
CIRCLE
  5
12A
100
AcDbEntity
  8
Layer1
 62
256
370
-1
 48
1.0
  6
BYLAYER
100
AcDbCircle
 10
119.2050607997362
 20
84.800808623548903
 30
0.0
 40
1.5
  0
LINE
  5
12B
100
AcDbEntity
  8
Layer1
 62
256
370
-1
 48
1.0
  6
BYLAYER
100
AcDbLine
 10
155.5882749697256
 20
-19.078640770682455
 30
0.0
 11
155.5882749697256
 21
-31.578640137383111
 31
0.0
  0
LINE
  5
12C
100
AcDbEntity
  8
Layer1
 62
256
370
-1
 48
1.0
  6
BYLAYER
100
AcDbLine
 10
155.4826249226615
 20
64.036028469227546
 30
0.0
 11
155.4826249226615
 21
51.536029102526896
 31
0.0
  0
LINE
  5
12D
100
AcDbEntity
  8
Layer1
 62
256
370
-1
 48
1.0
  6
BYLAYER
100
AcDbLine
 10
147.09068196972561
 20
-19.078640770682448
 30
0.0
 11
155.5882749697256
 21
-19.078640770682448
 31
0.0
  0
LINE
  5
12E
100
AcDbEntity
  8
Layer1
 62
256
370
-1
 48
1.0
  6
BYLAYER
100
AcDbLine
 10
146.98503192266151
 20
64.03602846922756
 30
0.0
 11
155.4826249226615
 21
64.03602846922756
 31
0.0
  0
LINE
  5
12F
100
AcDbEntity
  8
Layer1
 62
256
370
-1
 48
1.0
  6
BYLAYER
100
AcDbLine
 10
147.09068196972561
 20
-19.078640770682455
 30
0.0
 11
147.09068196972561
 21
-31.578640137383211
 31
0.0
  0
LINE
  5
130
100
AcDbEntity
  8
Layer1
 62
256
370
-1
 48
1.0
  6
BYLAYER
100
AcDbLine
 10
146.98503192266151
 20
64.036028469227546
 30
0.0
 11
146.98503192266151
 21
51.536029102526797
 31
0.0
  0
LINE
  5
131
100
AcDbEntity
  8
Layer1
 62
256
370
-1
 48
1.0
  6
BYLAYER
100
AcDbLine
 10
147.09068196972561
 20
-31.578640137383211
 30
0.0
 11
155.5882749697256
 21
-31.578640137383111
 31
0.0
  0
LINE
  5
132
100
AcDbEntity
  8
Layer1
 62
256
370
-1
 48
1.0
  6
BYLAYER
100
AcDbLine
 10
146.98503192266151
 20
51.536029102526797
 30
0.0
 11
155.4826249226615
 21
51.536029102526896
 31
0.0
  0
ARC
  5
133
100
AcDbEntity
  8
Layer1
 62
256
370
-1
 48
1.0
  6
BYLAYER
100
AcDbCircle
 10
165.5285718501504
 20
-45.734471209363846
 30
0.0
 40
1.5
100
AcDbArc
 50
180.0
 51
0.0
  0
LINE
  5
134
100
AcDbEntity
  8
Layer1
 62
256
370
-1
 48
1.0
  6
BYLAYER
100
AcDbLine
 10
167.02857185014989
 20
-25.734471209363846
 30
0.0
 11
167.02857185014989
 21
-45.734471209363818
 31
0.0
  0
LINE
  5
135
100
AcDbEntity
  8
Layer1
 62
256
370
-1
 48
1.0
  6
BYLAYER
100
AcDbLine
 10
171.0
 20
61.500000000000007
 30
0.0
 11
171.0
 21
41.900000000000013
 31
0.0
  0
ARC
  5
136
100
AcDbEntity
  8
Layer1
 62
256
370
-1
 48
1.0
  6
BYLAYER
100
AcDbCircle
 10
165.52857185014989
 20
-25.734471209363818
 30
0.0
 40
1.499999999999545
100
AcDbArc
 50
0.0
 51
180.0
  0
LINE
  5
137
100
AcDbEntity
  8
Layer1
 62
256
370
-1
 48
1.0
  6
BYLAYER
100
AcDbLine
 10
164.0285718501504
 20
-45.734471209363846
 30
0.0
 11
164.0285718501504
 21
-25.734471209363818
 31
0.0
  0
LINE
  5
138
100
AcDbEntity
  8
Layer1
 62
256
370
-1
 48
1.0
  6
BYLAYER
100
AcDbLine
 10
160.0
 20
41.900000000000013
 30
0.0
 11
160.0
 21
61.500000000000007
 31
0.0
  0
LINE
  5
139
100
AcDbEntity
  8
Layer1
 62
256
370
-1
 48
1.0
  6
BYLAYER
100
AcDbLine
 10
148.89068169386869
 20
-50.16468648338256
 30
0.0
 11
148.89068169386869
 21
-61.164686739382603
 31
0.0
  0
LINE
  5
13A
100
AcDbEntity
  8
Layer1
 62
256
370
-1
 48
1.0
  6
BYLAYER
100
AcDbLine
 10
148.78503164680458
 20
32.949982756527447
 30
0.0
 11
148.78503164680458
 21
21.949982500527405
 31
0.0
  0
LINE
  5
13B
100
AcDbEntity
  8
Layer1
 62
256
370
-1
 48
1.0
  6
BYLAYER
100
AcDbLine
 10
148.89068169386869
 20
-61.164686739382603
 30
0.0
 11
159.89068196972559
 21
-61.164686739382603
 31
0.0
  0
LINE
  5
13C
100
AcDbEntity
  8
Layer1
 62
256
370
-1
 48
1.0
  6
BYLAYER
100
AcDbLine
 10
148.78503164680458
 20
21.949982500527405
 30
0.0
 11
159.78503192266146
 21
21.949982500527405
 31
0.0
  0
LINE
  5
13D
100
AcDbEntity
  8
Layer1
 62
256
370
-1
 48
1.0
  6
BYLAYER
100
AcDbLine
 10
159.89068196972559
 20
-50.16468648338256
 30
0.0
 11
159.89068196972559
 21
-61.164686739382603
 31
0.0
  0
LINE
  5
13E
100
AcDbEntity
  8
Layer1
 62
256
370
-1
 48
1.0
  6
BYLAYER
100
AcDbLine
 10
159.78503192266146
 20
32.949982756527447
 30
0.0
 11
159.78503192266146
 21
21.949982500527405
 31
0.0
  0
LINE
  5
13F
100
AcDbEntity
  8
Layer1
 62
256
370
-1
 48
1.0
  6
BYLAYER
100
AcDbLine
 10
148.89068169386869
 20
-50.16468648338256
 30
0.0
 11
159.89068196972559
 21
-50.16468648338256
 31
0.0
  0
LINE
  5
140
100
AcDbEntity
  8
Layer1
 62
256
370
-1
 48
1.0
  6
BYLAYER
100
AcDbLine
 10
148.78503164680458
 20
32.949982756527447
 30
0.0
 11
159.78503192266146
 21
32.949982756527447
 31
0.0
  0
LINE
  5
141
100
AcDbEntity
  8
Layer1
 62
256
370
-1
 48
1.0
  6
BYLAYER
100
AcDbLine
 10
107.6008187693995
 20
151.18418761313643
 30
0.0
 11
111.6008194250515
 21
145.83418761313473
 31
0.0
  0
LINE
  5
142
100
AcDbEntity
  8
Layer1
 62
256
370
-1
 48
1.0
  6
BYLAYER
100
AcDbLine
 10
107.60081876939859
 20
136.27588453278796
 30
0.0
 11
111.60081942505059
 21
141.62588453278963
 31
0.0
  0
LINE
  5
143
100
AcDbEntity
  8
Layer1
 62
256
370
-1
 48
1.0
  6
BYLAYER
100
AcDbLine
 10
107.6008187693995
 20
156.70168673386007
 30
0.0
 11
107.6008187693995
 21
151.18418761313643
 31
0.0
  0
LINE
  5
144
100
AcDbEntity
  8
Layer1
 62
256
370
-1
 48
1.0
  6
BYLAYER
100
AcDbLine
 10
35.100820509855595
 20
156.70168673386007
 30
0.0
 11
107.60081852826391
 21
156.70168673386007
 31
0.0
  0
LINE
  5
145
100
AcDbEntity
  8
Layer1
 62
256
370
-1
 48
1.0
  6
BYLAYER
100
AcDbLine
 10
35.100820509855595
 20
156.70168673386007
 30
0.0
 11
35.100820509855595
 21
131.40168574399996
 31
0.0
  0
LINE
  5
146
100
AcDbEntity
  8
Layer1
 62
256
370
-1
 48
1.0
  6
BYLAYER
100
AcDbLine
 10
107.60081852826391
 20
131.40168574399996
 30
0.0
 11
35.100820509855083
 21
131.40168574399996
 31
0.0
  0
LINE
  5
147
100
AcDbEntity
  8
Layer1
 62
256
370
-1
 48
1.0
  6
BYLAYER
100
AcDbLine
 10
107.60081876940001
 20
136.27588474399997
 30
0.0
 11
107.60081876940001
 21
131.40168574399996
 31
0.0
  0
LINE
  5
148
100
AcDbEntity
  8
Layer1
 62
256
370
-1
 48
1.0
  6
BYLAYER
100
AcDbLine
 10
111.60081942505241
 20
145.83418761313473
 30
0.0
 11
111.60081942505059
 21
141.62588453278963
 31
0.0
  0
LINE
  5
149
100
AcDbEntity
  8
Layer1
 62
256
370
-1
 48
1.0
  6
BYLAYER
100
AcDbLine
 10
160.0
 20
61.500000000000007
 30
0.0
 11
171.0
 21
61.500000000000007
 31
0.0
  0
LINE
  5
14A
100
AcDbEntity
  8
Layer1
 62
256
370
-1
 48
1.0
  6
BYLAYER
100
AcDbLine
 10
160.0
 20
41.900000000000013
 30
0.0
 11
171.0
 21
41.900000000000013
 31
0.0
  0
CIRCLE
  5
14B
100
AcDbEntity
  8
Layer1
 62
256
370
-1
 48
1.0
  6
BYLAYER
100
AcDbCircle
 10
165.5
 20
64.200000000000003
 30
0.0
 40
1.5
  0
CIRCLE
  5
14C
100
AcDbEntity
  8
Layer1
 62
256
370
-1
 48
1.0
  6
BYLAYER
100
AcDbCircle
 10
165.5
 20
39.200000000000003
 30
0.0
 40
1.5
  0
ENDSEC
  0
SECTION
  2
OBJECTS
  0
DICTIONARY
  5
C
100
AcDbDictionary
280
0
281
1
  3
ACAD_GROUP
350
D
  3
ACAD_LAYOUT
350
1A
  3
ACAD_MLINESTYLE
350
17
  3
ACAD_PLOTSETTINGS
350
19
  3
ACAD_PLOTSTYLENAME
350
E
  3
AcDbVariableDictionary
350
14D
  3
QCAD_OBJECTS
350
14E
  0
DICTIONARY
  5
D
100
AcDbDictionary
280
0
281
1
  0
ACDBDICTIONARYWDFLT
  5
E
100
AcDbDictionary
281
1
  3
Normal
350
F
100
AcDbDictionaryWithDefault
340
F
  0
ACDBPLACEHOLDER
  5
F
  0
DICTIONARY
  5
17
100
AcDbDictionary
280
0
281
1
  3
Standard
350
18
  0
MLINESTYLE
  5
18
100
AcDbMlineStyle
  2
STANDARD
 70
0
  3

 62
256
 51
90.0
 52
90.0
 71
2
 49
0.5
 62
256
  6
BYLAYER
 49
-0.5
 62
256
  6
BYLAYER
  0
DICTIONARY
  5
19
100
AcDbDictionary
280
0
281
1
  0
DICTIONARY
  5
1A
100
AcDbDictionary
281
1
  3
Layout1
350
1E
  3
Layout2
350
26
  3
Model
350
22
  0
LAYOUT
  5
1E
100
AcDbPlotSettings
  1

  2
none_device
  4

  6

 40
0.0
 41
0.0
 42
0.0
 43
0.0
 44
0.0
 45
0.0
 46
0.0
 47
0.0
 48
0.0
 49
0.0
140
0.0
141
0.0
142
1.0
143
1.0
 70
688
 72
0
 73
0
 74
5
  7

 75
16
147
1.0
148
0.0
149
0.0
100
AcDbLayout
  1
Layout1
 70
1
 71
1
 10
0.0
 20
0.0
 11
420.0
 21
297.0
 12
0.0
 22
0.0
 32
0.0
 14
100000000000000000000.0
 24
100000000000000000000.0
 34
100000000000000000000.0
 15
-100000000000000000000.0
 25
-100000000000000000000.0
 35
-100000000000000000000.0
146
0.0
 13
0.0
 23
0.0
 33
0.0
 16
1.0
 26
0.0
 36
0.0
 17
0.0
 27
1.0
 37
0.0
 76
0
330
1B
  0
LAYOUT
  5
22
100
AcDbPlotSettings
  1

  2
none_device
  4

  6

 40
0.0
 41
0.0
 42
0.0
 43
0.0
 44
0.0
 45
0.0
 46
0.0
 47
0.0
 48
0.0
 49
0.0
140
0.0
141
0.0
142
1.0
143
1.0
 70
1712
 72
0
 73
0
 74
0
  7

 75
0
147
1.0
148
0.0
149
0.0
100
AcDbLayout
  1
Model
 70
1
 71
0
 10
0.0
 20
0.0
 11
12.0
 21
9.0
 12
0.0
 22
0.0
 32
0.0
 14
0.0
 24
0.0
 34
0.0
 15
0.0
 25
0.0
 35
0.0
146
0.0
 13
0.0
 23
0.0
 33
0.0
 16
1.0
 26
0.0
 36
0.0
 17
0.0
 27
1.0
 37
0.0
 76
0
330
1F
  0
LAYOUT
  5
26
100
AcDbPlotSettings
  1

  2
none_device
  4

  6

 40
0.0
 41
0.0
 42
0.0
 43
0.0
 44
0.0
 45
0.0
 46
0.0
 47
0.0
 48
0.0
 49
0.0
140
0.0
141
0.0
142
1.0
143
1.0
 70
688
 72
0
 73
0
 74
5
  7

 75
16
147
1.0
148
0.0
149
0.0
100
AcDbLayout
  1
Layout2
 70
1
 71
2
 10
0.0
 20
0.0
 11
12.0
 21
9.0
 12
0.0
 22
0.0
 32
0.0
 14
0.0
 24
0.0
 34
0.0
 15
0.0
 25
0.0
 35
0.0
146
0.0
 13
0.0
 23
0.0
 33
0.0
 16
1.0
 26
0.0
 36
0.0
 17
0.0
 27
1.0
 37
0.0
 76
0
330
23
  0
DICTIONARY
  5
14D
100
AcDbDictionary
281
1
  3
DIMASSOC
350
150
  3
HIDETEXT
350
14F
  0
DICTIONARYVAR
  5
14F
100
DictionaryVariables
280
0
  1
2
  0
DICTIONARYVAR
  5
150
100
DictionaryVariables
280
0
  1
1
  0
DICTIONARY
  5
14E
100
AcDbDictionary
281
1
  3
ColorSettings/BackgroundColor
350
151
  3
ColorSettings/ColorMode
350
152
  3
Grid/DisplayGrid00
350
153
  3
Grid/DisplayGrid01
350
154
  3
Grid/DisplayGrid02
350
155
  3
Grid/DisplayGrid03
350
156
  3
Grid/GridSpacingX00
350
157
  3
Grid/GridSpacingX01
350
158
  3
Grid/GridSpacingX02
350
159
  3
Grid/GridSpacingX03
350
15A
  3
Grid/GridSpacingY00
350
15B
  3
Grid/GridSpacingY01
350
15C
  3
Grid/GridSpacingY02
350
15D
  3
Grid/GridSpacingY03
350
15E
  3
Grid/IsometricGrid00
350
15F
  3
Grid/IsometricGrid01
350
160
  3
Grid/IsometricGrid02
350
161
  3
Grid/IsometricGrid03
350
162
  3
Grid/IsometricProjection00
350
163
  3
Grid/IsometricProjection01
350
164
  3
Grid/IsometricProjection02
350
165
  3
Grid/IsometricProjection03
350
166
  3
Grid/MetaGridSpacingX00
350
167
  3
Grid/MetaGridSpacingX01
350
168
  3
Grid/MetaGridSpacingX02
350
169
  3
Grid/MetaGridSpacingX03
350
16A
  3
Grid/MetaGridSpacingY00
350
16B
  3
Grid/MetaGridSpacingY01
350
16C
  3
Grid/MetaGridSpacingY02
350
16D
  3
Grid/MetaGridSpacingY03
350
16E
  3
MultiPageSettings/Columns
350
16F
  3
MultiPageSettings/GlueMarginsBottom
350
170
  3
MultiPageSettings/GlueMarginsLeft
350
171
  3
MultiPageSettings/GlueMarginsRight
350
172
  3
MultiPageSettings/GlueMarginsTop
350
173
  3
MultiPageSettings/PrintCropMarks
350
174
  3
MultiPageSettings/Rows
350
175
  3
PageSettings/OffsetX
350
176
  3
PageSettings/OffsetY
350
177
  3
PageSettings/PageOrientation
350
178
  3
PageSettings/PaperHeight
350
179
  3
PageSettings/PaperWidth
350
17A
  3
PageSettings/Scale
350
17B
  3
PageSettings/ShowPaperBorders
350
17C
  3
QCADVersion
350
17D
  3
UnitSettings/PaperUnit
350
17E
  3
ViewportCenter
350
17F
  3
ViewportHeight
350
180
  3
ViewportWidth
350
181
  0
XRECORD
  5
151
330
14E
100
AcDbXrecord
280
1
1000
White
  0
XRECORD
  5
152
330
14E
100
AcDbXrecord
280
1
1000
FullColor
  0
XRECORD
  5
153
330
14E
100
AcDbXrecord
280
1
290
1
  0
XRECORD
  5
154
330
14E
100
AcDbXrecord
280
1
290
1
  0
XRECORD
  5
155
330
14E
100
AcDbXrecord
280
1
290
1
  0
XRECORD
  5
156
330
14E
100
AcDbXrecord
280
1
290
1
  0
XRECORD
  5
157
330
14E
100
AcDbXrecord
280
1
1000
auto
  0
XRECORD
  5
158
330
14E
100
AcDbXrecord
280
1
1000
auto
  0
XRECORD
  5
159
330
14E
100
AcDbXrecord
280
1
1000
auto
  0
XRECORD
  5
15A
330
14E
100
AcDbXrecord
280
1
1000
auto
  0
XRECORD
  5
15B
330
14E
100
AcDbXrecord
280
1
1000
auto
  0
XRECORD
  5
15C
330
14E
100
AcDbXrecord
280
1
1000
auto
  0
XRECORD
  5
15D
330
14E
100
AcDbXrecord
280
1
1000
auto
  0
XRECORD
  5
15E
330
14E
100
AcDbXrecord
280
1
1000
auto
  0
XRECORD
  5
15F
330
14E
100
AcDbXrecord
280
1
290
0
  0
XRECORD
  5
160
330
14E
100
AcDbXrecord
280
1
290
0
  0
XRECORD
  5
161
330
14E
100
AcDbXrecord
280
1
290
0
  0
XRECORD
  5
162
330
14E
100
AcDbXrecord
280
1
290
0
  0
XRECORD
  5
163
330
14E
100
AcDbXrecord
280
1
 90
65537
  0
XRECORD
  5
164
330
14E
100
AcDbXrecord
280
1
 90
65537
  0
XRECORD
  5
165
330
14E
100
AcDbXrecord
280
1
 90
65537
  0
XRECORD
  5
166
330
14E
100
AcDbXrecord
280
1
 90
65537
  0
XRECORD
  5
167
330
14E
100
AcDbXrecord
280
1
1000
auto
  0
XRECORD
  5
168
330
14E
100
AcDbXrecord
280
1
1000
auto
  0
XRECORD
  5
169
330
14E
100
AcDbXrecord
280
1
1000
auto
  0
XRECORD
  5
16A
330
14E
100
AcDbXrecord
280
1
1000
auto
  0
XRECORD
  5
16B
330
14E
100
AcDbXrecord
280
1
1000
auto
  0
XRECORD
  5
16C
330
14E
100
AcDbXrecord
280
1
1000
auto
  0
XRECORD
  5
16D
330
14E
100
AcDbXrecord
280
1
1000
auto
  0
XRECORD
  5
16E
330
14E
100
AcDbXrecord
280
1
1000
auto
  0
XRECORD
  5
16F
330
14E
100
AcDbXrecord
280
1
 90
1
  0
XRECORD
  5
170
330
14E
100
AcDbXrecord
280
1
 40
10.0
  0
XRECORD
  5
171
330
14E
100
AcDbXrecord
280
1
 40
10.0
  0
XRECORD
  5
172
330
14E
100
AcDbXrecord
280
1
 40
10.0
  0
XRECORD
  5
173
330
14E
100
AcDbXrecord
280
1
 40
10.0
  0
XRECORD
  5
174
330
14E
100
AcDbXrecord
280
1
290
0
  0
XRECORD
  5
175
330
14E
100
AcDbXrecord
280
1
 90
1
  0
XRECORD
  5
176
330
14E
100
AcDbXrecord
280
1
 40
0.0
  0
XRECORD
  5
177
330
14E
100
AcDbXrecord
280
1
 40
0.0
  0
XRECORD
  5
178
330
14E
100
AcDbXrecord
280
1
1000
Portrait
  0
XRECORD
  5
179
330
14E
100
AcDbXrecord
280
1
 40
297.0
  0
XRECORD
  5
17A
330
14E
100
AcDbXrecord
280
1
 40
210.0
  0
XRECORD
  5
17B
330
14E
100
AcDbXrecord
280
1
1000
1:1
  0
XRECORD
  5
17C
330
14E
100
AcDbXrecord
280
1
290
1
  0
XRECORD
  5
17D
330
14E
100
AcDbXrecord
280
1
1000
3.18.0
  0
XRECORD
  5
17E
330
14E
100
AcDbXrecord
280
1
 90
4
  0
XRECORD
  5
180
330
14E
100
AcDbXrecord
280
1
 40
75.957028880661497
  0
XRECORD
  5
181
330
14E
100
AcDbXrecord
280
1
 40
167.08248107788472
  0
ENDSEC
  0
EOF
