999
dxflib 3.17.0.0
  0
SECTION
  2
HEADER
  9
$ACADVER
  1
AC1015
  9
$HANDSEED
  5
FFFF
  9
$DIMADEC
 70
0
  9
$DIMASZ
 40
2.5
  9
$DIMAUNIT
 70
0
  9
$DIMAZIN
 70
2
  9
$DIMDEC
 70
4
  9
$DIMDSEP
 70
46
  9
$DIMEXE
 40
1.25
  9
$DIMEXO
 40
0.625
  9
$DIMGAP
 40
0.625
  9
$DIMLUNIT
 70
2
  9
$DIMSCALE
 40
1.0
  9
$DIMTSZ
 40
0.0
  9
$DIMTXT
 40
2.5
  9
$DIMZIN
 70
8
  9
$DWGCODEPAGE
  3
ANSI_1252
  9
$INSUNITS
 70
4
  9
$LTSCALE
 40
1.0
  9
$MAXACTVP
 70
32
  9
$MEASUREMENT
 70
1
  9
$PDMODE
 70
0
  9
$PDSIZE
 40
0
  0
ENDSEC
  0
SECTION
  2
TABLES
  0
TABLE
  2
VPORT
  5
8
100
AcDbSymbolTable
 70
1
  0
VPORT
  5
30
100
AcDbSymbolTableRecord
100
AcDbViewportTableRecord
  2
*Active
 70
0
 10
0.0
 20
0.0
 11
1.0
 21
1.0
 12
286.30555555555549
 22
148.5
 13
0.0
 23
0.0
 14
10.0
 24
10.0
 15
10.0
 25
10.0
 16
0.0
 26
0.0
 36
1.0
 17
0.0
 27
0.0
 37
0.0
 40
297.0
 41
1.92798353909465
 42
50.0
 43
0.0
 44
0.0
 50
0.0
 51
0.0
 71
0
 72
100
 73
1
 74
3
 75
1
 76
1
 77
0
 78
0
281
0
 65
1
110
0.0
120
0.0
130
0.0
111
1.0
121
0.0
131
0.0
112
0.0
122
1.0
132
0.0
 79
0
146
0.0
  0
ENDTAB
  0
TABLE
  2
LTYPE
  5
5
100
AcDbSymbolTable
 70
41
  0
LTYPE
  5
16
100
AcDbSymbolTableRecord
100
AcDbLinetypeTableRecord
  2
Continuous
 70
0
  3
Solid line
 72
65
 73
0
 40
0.0
  0
LTYPE
  5
14
100
AcDbSymbolTableRecord
100
AcDbLinetypeTableRecord
  2
BYBLOCK
 70
0
  3

 72
65
 73
0
 40
0.0
  0
LTYPE
  5
31
100
AcDbSymbolTableRecord
100
AcDbLinetypeTableRecord
  2
DIVIDE
 70
0
  3
Divide ____ . . ____ . . ____ . . ____ . . ____
 72
65
 73
6
 40
31.750000000000004
 49
12.699999999999999
 74
0
 49
-6.2999999999999998
 74
0
 49
0.1
 74
0
 49
-6.25
 74
0
 49
0.1
 74
0
 49
-6.2999999999999998
 74
0
  0
LTYPE
  5
32
100
AcDbSymbolTableRecord
100
AcDbLinetypeTableRecord
  2
ACAD_ISO12W100
 70
0
  3
ISO dash double-dot __ . . __ . . __ . . __ . . 
 72
65
 73
6
 40
21.0
 49
12.0
 74
0
 49
-2.9500000000000002
 74
0
 49
0.1
 74
0
 49
-2.9000000000000004
 74
0
 49
0.1
 74
0
 49
-2.9500000000000002
 74
0
  0
LTYPE
  5
33
100
AcDbSymbolTableRecord
100
AcDbLinetypeTableRecord
  2
DOT2
 70
0
  3
Dot (.5x) ........................................
 72
65
 73
2
 40
3.1749999999999998
 49
0.1
 74
0
 49
-3.0749999999999997
 74
0
  0
LTYPE
  5
34
100
AcDbSymbolTableRecord
100
AcDbLinetypeTableRecord
  2
ACAD_ISO02W100
 70
0
  3
ISO dash __ __ __ __ __ __ __ __ __ __ __ __ __
 72
65
 73
2
 40
15.0
 49
12.0
 74
0
 49
-3.0
 74
0
  0
LTYPE
  5
35
100
AcDbSymbolTableRecord
100
AcDbLinetypeTableRecord
  2
ACAD_ISO11W100
 70
0
  3
ISO double-dash dot __ __ . __ __ . __ __ . __ _
 72
65
 73
6
 40
33.0
 49
12.0
 74
0
 49
-3.0
 74
0
 49
12.0
 74
0
 49
-2.9500000000000002
 74
0
 49
0.1
 74
0
 49
-2.9500000000000002
 74
0
  0
LTYPE
  5
36
100
AcDbSymbolTableRecord
100
AcDbLinetypeTableRecord
  2
BORDERX2
 70
0
  3
Border (2x) ____  ____  .  ____  ____  .  ___
 72
65
 73
6
 40
88.899999999999977
 49
25.399999999999999
 74
0
 49
-12.699999999999999
 74
0
 49
25.399999999999999
 74
0
 49
-12.649999999999999
 74
0
 49
0.1
 74
0
 49
-12.649999999999999
 74
0
  0
LTYPE
  5
37
100
AcDbSymbolTableRecord
100
AcDbLinetypeTableRecord
  2
DIVIDEX2
 70
0
  3
Divide (2x) ________  .  .  ________  .  .  _
 72
65
 73
6
 40
63.5
 49
25.399999999999999
 74
0
 49
-12.649999999999999
 74
0
 49
0.1
 74
0
 49
-12.599999999999998
 74
0
 49
0.1
 74
0
 49
-12.649999999999999
 74
0
  0
LTYPE
  5
38
100
AcDbSymbolTableRecord
100
AcDbLinetypeTableRecord
  2
DOT
 70
0
  3
Dot . . . . . . . . . . . . . . . . . . . . . . . .
 72
65
 73
2
 40
6.3499999999999996
 49
0.1
 74
0
 49
-6.25
 74
0
  0
LTYPE
  5
39
100
AcDbSymbolTableRecord
100
AcDbLinetypeTableRecord
  2
DASHDOT
 70
0
  3
Dash dot __ . __ . __ . __ . __ . __ . __ . __
 72
65
 73
4
 40
25.400000000000002
 49
12.699999999999999
 74
0
 49
-6.2999999999999998
 74
0
 49
0.1
 74
0
 49
-6.2999999999999998
 74
0
  0
LTYPE
  5
3A
100
AcDbSymbolTableRecord
100
AcDbLinetypeTableRecord
  2
ACAD_ISO15W100
 70
0
  3
ISO double-dash triple-dot __ __ . . . __ __ . .
 72
65
 73
10
 40
39.000000000000007
 49
12.0
 74
0
 49
-3.0
 74
0
 49
12.0
 74
0
 49
-2.9500000000000002
 74
0
 49
0.1
 74
0
 49
-2.9000000000000004
 74
0
 49
0.1
 74
0
 49
-2.9000000000000004
 74
0
 49
0.1
 74
0
 49
-2.9500000000000002
 74
0
  0
LTYPE
  5
3B
100
AcDbSymbolTableRecord
100
AcDbLinetypeTableRecord
  2
ACAD_ISO14W100
 70
0
  3
ISO dash triple-dot __ . . . __ . . . __ . . . _
 72
65
 73
8
 40
24.000000000000004
 49
12.0
 74
0
 49
-2.9500000000000002
 74
0
 49
0.1
 74
0
 49
-2.9000000000000004
 74
0
 49
0.1
 74
0
 49
-2.9000000000000004
 74
0
 49
0.1
 74
0
 49
-2.9500000000000002
 74
0
  0
LTYPE
  5
3C
100
AcDbSymbolTableRecord
100
AcDbLinetypeTableRecord
  2
DASHED2
 70
0
  3
Dashed (.5x) _ _ _ _ _ _ _ _ _ _ _ _ _ _ _ _ _ 
 72
65
 73
2
 40
9.5249999999999986
 49
6.3499999999999996
 74
0
 49
-3.1749999999999998
 74
0
  0
LTYPE
  5
3D
100
AcDbSymbolTableRecord
100
AcDbLinetypeTableRecord
  2
DASHED
 70
0
  3
Dashed __ __ __ __ __ __ __ __ __ __ __ __ __ _
 72
65
 73
2
 40
19.049999999999997
 49
12.699999999999999
 74
0
 49
-6.3499999999999996
 74
0
  0
LTYPE
  5
3E
100
AcDbSymbolTableRecord
100
AcDbLinetypeTableRecord
  2
BORDER
 70
0
  3
Border __ __ . __ __ . __ __ . __ __ . __ __ .
 72
65
 73
6
 40
44.449999999999996
 49
12.699999999999999
 74
0
 49
-6.3499999999999996
 74
0
 49
12.699999999999999
 74
0
 49
-6.2999999999999998
 74
0
 49
0.1
 74
0
 49
-6.2999999999999998
 74
0
  0
LTYPE
  5
3F
100
AcDbSymbolTableRecord
100
AcDbLinetypeTableRecord
  2
DASHDOT2
 70
0
  3
Dash dot (.5x) _._._._._._._._._._._._._._._.
 72
65
 73
4
 40
12.699999999999999
 49
6.3499999999999996
 74
0
 49
-3.125
 74
0
 49
0.1
 74
0
 49
-3.125
 74
0
  0
LTYPE
  5
40
100
AcDbSymbolTableRecord
100
AcDbLinetypeTableRecord
  2
ACAD_ISO09W100
 70
0
  3
ISO long-dash double-short-dash ____ __ __ ____
 72
65
 73
6
 40
45.0
 49
24.0
 74
0
 49
-3.0
 74
0
 49
6.0
 74
0
 49
-3.0
 74
0
 49
6.0
 74
0
 49
-3.0
 74
0
  0
LTYPE
  5
41
100
AcDbSymbolTableRecord
100
AcDbLinetypeTableRecord
  2
CENTER2
 70
0
  3
Center (.5x) ___ _ ___ _ ___ _ ___ _ ___ _ ___
 72
65
 73
4
 40
28.575000000000003
 49
19.050000000000001
 74
0
 49
-3.1749999999999998
 74
0
 49
3.1749999999999998
 74
0
 49
-3.1749999999999998
 74
0
  0
LTYPE
  5
42
100
AcDbSymbolTableRecord
100
AcDbLinetypeTableRecord
  2
HIDDEN
 70
0
  3
Hidden __ __ __ __ __ __ __ __ __ __ __ __ __ __
 72
65
 73
2
 40
9.5249999999999986
 49
6.3499999999999996
 74
0
 49
-3.1749999999999998
 74
0
  0
LTYPE
  5
15
100
AcDbSymbolTableRecord
100
AcDbLinetypeTableRecord
  2
BYLAYER
 70
0
  3

 72
65
 73
0
 40
0.0
  0
LTYPE
  5
43
100
AcDbSymbolTableRecord
100
AcDbLinetypeTableRecord
  2
ACAD_ISO06W100
 70
0
  3
ISO long-dash triple-dot ____ ... ____ ... ____
 72
65
 73
8
 40
36.000000000000007
 49
24.0
 74
0
 49
-2.9500000000000002
 74
0
 49
0.1
 74
0
 49
-2.9000000000000004
 74
0
 49
0.1
 74
0
 49
-2.9000000000000004
 74
0
 49
0.1
 74
0
 49
-2.9500000000000002
 74
0
  0
LTYPE
  5
44
100
AcDbSymbolTableRecord
100
AcDbLinetypeTableRecord
  2
DASHDOTX2
 70
0
  3
Dash dot (2x) ____  .  ____  .  ____  .  ___
 72
65
 73
4
 40
50.799999999999997
 49
25.399999999999999
 74
0
 49
-12.649999999999999
 74
0
 49
0.1
 74
0
 49
-12.649999999999999
 74
0
  0
LTYPE
  5
45
100
AcDbSymbolTableRecord
100
AcDbLinetypeTableRecord
  2
ACAD_ISO03W100
 70
0
  3
ISO dash space __    __    __    __    __    __
 72
65
 73
2
 40
30.0
 49
12.0
 74
0
 49
-18.0
 74
0
  0
LTYPE
  5
46
100
AcDbSymbolTableRecord
100
AcDbLinetypeTableRecord
  2
PHANTOM2
 70
0
  3
Phantom (.5x) ___ _ _ ___ _ _ ___ _ _ ___ _ _
 72
65
 73
6
 40
31.750000000000004
 49
15.875
 74
0
 49
-3.1749999999999998
 74
0
 49
3.1749999999999998
 74
0
 49
-3.1749999999999998
 74
0
 49
3.1749999999999998
 74
0
 49
-3.1749999999999998
 74
0
  0
LTYPE
  5
47
100
AcDbSymbolTableRecord
100
AcDbLinetypeTableRecord
  2
ACAD_ISO08W100
 70
0
  3
ISO long-dash short-dash ____ __ ____ __ ____ _
 72
65
 73
4
 40
36.0
 49
24.0
 74
0
 49
-3.0
 74
0
 49
6.0
 74
0
 49
-3.0
 74
0
  0
LTYPE
  5
48
100
AcDbSymbolTableRecord
100
AcDbLinetypeTableRecord
  2
DOTX2
 70
0
  3
Dot (2x) .  .  .  .  .  .  .  .  .  .  .  .  .  .
 72
65
 73
2
 40
12.699999999999999
 49
0.1
 74
0
 49
-12.6
 74
0
  0
LTYPE
  5
49
100
AcDbSymbolTableRecord
100
AcDbLinetypeTableRecord
  2
PHANTOM
 70
0
  3
Phantom ______  __  __  ______  __  __  ______ 
 72
65
 73
6
 40
63.500000000000007
 49
31.75
 74
0
 49
-6.3499999999999996
 74
0
 49
6.3499999999999996
 74
0
 49
-6.3499999999999996
 74
0
 49
6.3499999999999996
 74
0
 49
-6.3499999999999996
 74
0
  0
LTYPE
  5
4A
100
AcDbSymbolTableRecord
100
AcDbLinetypeTableRecord
  2
BORDER2
 70
0
  3
Border (.5x) __.__.__.__.__.__.__.__.__.__.__.
 72
65
 73
6
 40
22.225000000000001
 49
6.3499999999999996
 74
0
 49
-3.1749999999999998
 74
0
 49
6.3499999999999996
 74
0
 49
-3.125
 74
0
 49
0.1
 74
0
 49
-3.125
 74
0
  0
LTYPE
  5
4B
100
AcDbSymbolTableRecord
100
AcDbLinetypeTableRecord
  2
ACAD_ISO13W100
 70
0
  3
ISO double-dash double-dot __ __ . . __ __ . . _
 72
65
 73
8
 40
36.000000000000007
 49
12.0
 74
0
 49
-3.0
 74
0
 49
12.0
 74
0
 49
-2.9500000000000002
 74
0
 49
0.1
 74
0
 49
-2.9000000000000004
 74
0
 49
0.1
 74
0
 49
-2.9500000000000002
 74
0
  0
LTYPE
  5
4C
100
AcDbSymbolTableRecord
100
AcDbLinetypeTableRecord
  2
HIDDENX2
 70
0
  3
Hidden (2x) ____ ____ ____ ____ ____ ____ ____ 
 72
65
 73
2
 40
19.049999999999997
 49
12.699999999999999
 74
0
 49
-6.3499999999999996
 74
0
  0
LTYPE
  5
4D
100
AcDbSymbolTableRecord
100
AcDbLinetypeTableRecord
  2
ACAD_ISO04W100
 70
0
  3
ISO long-dash dot ____ . ____ . ____ . ____ . _
 72
65
 73
4
 40
30.0
 49
24.0
 74
0
 49
-2.9500000000000002
 74
0
 49
0.1
 74
0
 49
-2.9500000000000002
 74
0
  0
LTYPE
  5
4E
100
AcDbSymbolTableRecord
100
AcDbLinetypeTableRecord
  2
DIVIDE2
 70
0
  3
Divide (.5x) __..__..__..__..__..__..__..__.._
 72
65
 73
6
 40
15.874999999999998
 49
6.3499999999999996
 74
0
 49
-3.125
 74
0
 49
0.1
 74
0
 49
-3.0750000000000002
 74
0
 49
0.1
 74
0
 49
-3.125
 74
0
  0
LTYPE
  5
4F
100
AcDbSymbolTableRecord
100
AcDbLinetypeTableRecord
  2
HIDDEN2
 70
0
  3
Hidden (.5x) _ _ _ _ _ _ _ _ _ _ _ _ _ _ _ _ _ 
 72
65
 73
2
 40
4.7624999999999993
 49
3.1749999999999998
 74
0
 49
-1.5874999999999999
 74
0
  0
LTYPE
  5
50
100
AcDbSymbolTableRecord
100
AcDbLinetypeTableRecord
  2
ACAD_ISO10W100
 70
0
  3
ISO dash dot __ . __ . __ . __ . __ . __ . __ . 
 72
65
 73
4
 40
18.0
 49
12.0
 74
0
 49
-2.9500000000000002
 74
0
 49
0.1
 74
0
 49
-2.9500000000000002
 74
0
  0
LTYPE
  5
51
100
AcDbSymbolTableRecord
100
AcDbLinetypeTableRecord
  2
DASHEDX2
 70
0
  3
Dashed (2x) ____  ____  ____  ____  ____  ___
 72
65
 73
2
 40
38.099999999999994
 49
25.399999999999999
 74
0
 49
-12.699999999999999
 74
0
  0
LTYPE
  5
52
100
AcDbSymbolTableRecord
100
AcDbLinetypeTableRecord
  2
PHANTOMX2
 70
0
  3
Phantom (2x) ____________    ____    ____   _
 72
65
 73
6
 40
127.00000000000001
 49
63.5
 74
0
 49
-12.699999999999999
 74
0
 49
12.699999999999999
 74
0
 49
-12.699999999999999
 74
0
 49
12.699999999999999
 74
0
 49
-12.699999999999999
 74
0
  0
LTYPE
  5
53
100
AcDbSymbolTableRecord
100
AcDbLinetypeTableRecord
  2
CENTERX2
 70
0
  3
Center (2x) ________  __  ________  __  _____
 72
65
 73
4
 40
101.60000000000001
 49
63.5
 74
0
 49
-12.699999999999999
 74
0
 49
12.699999999999999
 74
0
 49
-12.699999999999999
 74
0
  0
LTYPE
  5
54
100
AcDbSymbolTableRecord
100
AcDbLinetypeTableRecord
  2
ACAD_ISO05W100
 70
0
  3
ISO long-dash double-dot ____ .. ____ .. ____ . 
 72
65
 73
6
 40
33.000000000000007
 49
24.0
 74
0
 49
-2.9500000000000002
 74
0
 49
0.1
 74
0
 49
-2.9000000000000004
 74
0
 49
0.1
 74
0
 49
-2.9500000000000002
 74
0
  0
LTYPE
  5
55
100
AcDbSymbolTableRecord
100
AcDbLinetypeTableRecord
  2
ACAD_ISO07W100
 70
0
  3
ISO dot . . . . . . . . . . . . . . . . . . . . 
 72
65
 73
2
 40
3.0
 49
0.1
 74
0
 49
-2.8999999999999999
 74
0
  0
LTYPE
  5
56
100
AcDbSymbolTableRecord
100
AcDbLinetypeTableRecord
  2
CENTER
 70
0
  3
Center ____ _ ____ _ ____ _ ____ _ ____ _ ____
 72
65
 73
4
 40
50.800000000000004
 49
31.75
 74
0
 49
-6.3499999999999996
 74
0
 49
6.3499999999999996
 74
0
 49
-6.3499999999999996
 74
0
  0
ENDTAB
  0
TABLE
  2
LAYER
  5
2
100
AcDbSymbolTable
 70
2
  0
LAYER
  5
57
100
AcDbSymbolTableRecord
100
AcDbLayerTableRecord
  2
Layer1
 70
0
 62
2
420
16776960
  6
Continuous
370
-3
390
F
  0
LAYER
  5
10
100
AcDbSymbolTableRecord
100
AcDbLayerTableRecord
  2
0
 70
0
 62
7
420
16777215
  6
Continuous
370
25
390
F
  0
ENDTAB
  0
TABLE
  2
STYLE
  5
3
100
AcDbSymbolTable
 70
1
  0
STYLE
  5
58
100
AcDbSymbolTableRecord
100
AcDbTextStyleTableRecord
  2
Standard
 70
0
 40
0.0
 41
1.0
 50
0.0
 71
0
 42
2.5
  3

  4

1001
ACAD
1000
txt
1071
0
  0
ENDTAB
  0
TABLE
  2
VIEW
  5
6
100
AcDbSymbolTable
 70
0
  0
ENDTAB
  0
TABLE
  2
UCS
  5
7
100
AcDbSymbolTable
 70
0
  0
ENDTAB
  0
TABLE
  2
APPID
  5
9
100
AcDbSymbolTable
 70
1
  0
APPID
  5
12
100
AcDbSymbolTableRecord
100
AcDbRegAppTableRecord
  2
ACAD
 70
0
  0
APPID
  5
59
100
AcDbSymbolTableRecord
100
AcDbRegAppTableRecord
  2
QCAD
 70
0
  0
ENDTAB
  0
TABLE
  2
DIMSTYLE
  5
A
100
AcDbSymbolTable
 70
1
100
AcDbDimStyleTable
 71
0
  0
DIMSTYLE
105
27
100
AcDbSymbolTableRecord
100
AcDbDimStyleTableRecord
  2
Standard
 41
2.5
 42
0.625
 43
3.75
 44
1.25
 70
0
 73
0
 74
0
 77
1
 78
8
140
2.5
141
2.5
143
0.03937007874016
147
0.625
171
3
172
1
271
2
272
2
274
3
278
44
283
0
284
8
340
58
  0
ENDTAB
  0
TABLE
  2
BLOCK_RECORD
  5
1
100
AcDbSymbolTable
 70
1
  0
BLOCK_RECORD
  5
1F
100
AcDbSymbolTableRecord
100
AcDbBlockTableRecord
  2
*Model_Space
340
22
  0
BLOCK_RECORD
  5
1B
100
AcDbSymbolTableRecord
100
AcDbBlockTableRecord
  2
*Paper_Space
340
1E
  0
BLOCK_RECORD
  5
23
100
AcDbSymbolTableRecord
100
AcDbBlockTableRecord
  2
*Paper_Space0
340
26
  0
ENDTAB
  0
ENDSEC
  0
SECTION
  2
BLOCKS
  0
BLOCK
  5
20
100
AcDbEntity
  8
0
100
AcDbBlockBegin
  2
*Model_Space
 70
0
 10
0.0
 20
0.0
 30
0.0
  3
*Model_Space
  1

  0
ENDBLK
  5
21
100
AcDbEntity
  8
0
100
AcDbBlockEnd
  0
BLOCK
  5
1C
100
AcDbEntity
 67
1
  8
0
100
AcDbBlockBegin
  2
*Paper_Space
 70
0
 10
0.0
 20
0.0
 30
0.0
  3
*Paper_Space
  1

  0
ENDBLK
  5
1D
100
AcDbEntity
 67
1
  8
0
100
AcDbBlockEnd
  0
BLOCK
  5
24
100
AcDbEntity
  8
0
100
AcDbBlockBegin
  2
*Paper_Space0
 70
0
 10
0.0
 20
0.0
 30
0.0
  3
*Paper_Space0
  1

  0
ENDBLK
  5
25
100
AcDbEntity
  8
0
100
AcDbBlockEnd
  0
ENDSEC
  0
SECTION
  2
ENTITIES
  0
LINE
  5
5A
100
AcDbEntity
  8
Layer1
 62
256
370
-1
 48
1.0
  6
BYLAYER
100
AcDbLine
 10
14.076998936898093
 20
113.97190790792757
 30
0.0
 11
14.076998936898093
 21
99.871907907927579
 31
0.0
  0
LINE
  5
5B
100
AcDbEntity
  8
Layer1
 62
256
370
-1
 48
1.0
  6
BYLAYER
100
AcDbLine
 10
13.930060528263851
 20
164.96346399999999
 30
0.0
 11
13.930060528263851
 21
150.86346399999999
 31
0.0
  0
LINE
  5
5C
100
AcDbEntity
  8
Layer1
 62
256
370
-1
 48
1.0
  6
BYLAYER
100
AcDbLine
 10
14.076998936898093
 20
99.871907907927579
 30
0.0
 11
17.026998936898138
 21
99.871907907927579
 31
0.0
  0
LINE
  5
5D
100
AcDbEntity
  8
Layer1
 62
256
370
-1
 48
1.0
  6
BYLAYER
100
AcDbLine
 10
13.930060528263851
 20
150.86346399999999
 30
0.0
 11
16.880060528263897
 21
150.86346399999999
 31
0.0
  0
LINE
  5
5E
100
AcDbEntity
  8
Layer1
 62
256
370
-1
 48
1.0
  6
BYLAYER
100
AcDbLine
 10
17.026998936898138
 20
99.871907907927579
 30
0.0
 11
17.026998936898138
 21
113.97190790792757
 31
0.0
  0
LINE
  5
5F
100
AcDbEntity
  8
Layer1
 62
256
370
-1
 48
1.0
  6
BYLAYER
100
AcDbLine
 10
16.880060528263897
 20
150.86346399999999
 30
0.0
 11
16.880060528263897
 21
164.96346399999999
 31
0.0
  0
LINE
  5
60
100
AcDbEntity
  8
Layer1
 62
256
370
-1
 48
1.0
  6
BYLAYER
100
AcDbLine
 10
17.026998936898138
 20
113.97190790792757
 30
0.0
 11
14.076998936898093
 21
113.97190790792757
 31
0.0
  0
LINE
  5
61
100
AcDbEntity
  8
Layer1
 62
256
370
-1
 48
1.0
  6
BYLAYER
100
AcDbLine
 10
16.880060528263897
 20
164.96346399999999
 30
0.0
 11
13.930060528263851
 21
164.96346399999999
 31
0.0
  0
LINE
  5
62
100
AcDbEntity
  8
Layer1
 62
256
370
-1
 48
1.0
  6
BYLAYER
100
AcDbLine
 10
40.651999408634239
 20
89.914970651927547
 30
0.0
 11
90.251998936898133
 21
89.914970651927547
 31
0.0
  0
LINE
  5
63
100
AcDbEntity
  8
Layer1
 62
256
370
-1
 48
1.0
  6
BYLAYER
100
AcDbLine
 10
40.505060999999998
 20
140.90652674399996
 30
0.0
 11
90.105060528263891
 21
140.90652674399996
 31
0.0
  0
LINE
  5
64
100
AcDbEntity
  8
Layer1
 62
256
370
-1
 48
1.0
  6
BYLAYER
100
AcDbLine
 10
90.251998936898133
 20
89.914970651927547
 30
0.0
 11
90.251998936898133
 21
92.864970651927536
 31
0.0
  0
LINE
  5
65
100
AcDbEntity
  8
Layer1
 62
256
370
-1
 48
1.0
  6
BYLAYER
100
AcDbLine
 10
90.105060528263891
 20
140.90652674399996
 30
0.0
 11
90.105060528263891
 21
143.85652674399995
 31
0.0
  0
LINE
  5
66
100
AcDbEntity
  8
Layer1
 62
256
370
-1
 48
1.0
  6
BYLAYER
100
AcDbLine
 10
90.251999408634248
 20
92.864970651927536
 30
0.0
 11
40.651999408634239
 21
92.864970651927536
 31
0.0
  0
LINE
  5
67
100
AcDbEntity
  8
Layer1
 62
256
370
-1
 48
1.0
  6
BYLAYER
100
AcDbLine
 10
90.105060528263891
 20
143.85652674399995
 30
0.0
 11
40.505060999999998
 21
143.85652674399995
 31
0.0
  0
LINE
  5
68
100
AcDbEntity
  8
Layer1
 62
256
370
-1
 48
1.0
  6
BYLAYER
100
AcDbLine
 10
40.651999408634239
 20
92.864970651927536
 30
0.0
 11
40.651999408634239
 21
89.914970651927547
 31
0.0
  0
LINE
  5
69
100
AcDbEntity
  8
Layer1
 62
256
370
-1
 48
1.0
  6
BYLAYER
100
AcDbLine
 10
40.505060999999998
 20
143.85652674399995
 30
0.0
 11
40.505060999999998
 21
140.90652674399996
 31
0.0
  0
LINE
  5
6A
100
AcDbEntity
  8
Layer1
 62
256
370
-1
 48
1.0
  6
BYLAYER
100
AcDbLine
 10
90.251998936898133
 20
120.97884465192755
 30
0.0
 11
90.251998936898133
 21
123.92884465192753
 31
0.0
  0
LINE
  5
6B
100
AcDbEntity
  8
Layer1
 62
256
370
-1
 48
1.0
  6
BYLAYER
100
AcDbLine
 10
90.105060528263891
 20
171.97040074399996
 30
0.0
 11
90.105060528263891
 21
174.92040074399995
 31
0.0
  0
LINE
  5
6C
100
AcDbEntity
  8
Layer1
 62
256
370
-1
 48
1.0
  6
BYLAYER
100
AcDbLine
 10
90.251998936898133
 20
123.92884465192753
 30
0.0
 11
40.651999408634239
 21
123.92884465192753
 31
0.0
  0
LINE
  5
6D
100
AcDbEntity
  8
Layer1
 62
256
370
-1
 48
1.0
  6
BYLAYER
100
AcDbLine
 10
90.105060528263891
 20
174.92040074399995
 30
0.0
 11
40.505060999999998
 21
174.92040074399995
 31
0.0
  0
LINE
  5
6E
100
AcDbEntity
  8
Layer1
 62
256
370
-1
 48
1.0
  6
BYLAYER
100
AcDbLine
 10
40.651999408634239
 20
123.92884465192753
 30
0.0
 11
40.651999408634239
 21
120.97884465192755
 31
0.0
  0
LINE
  5
6F
100
AcDbEntity
  8
Layer1
 62
256
370
-1
 48
1.0
  6
BYLAYER
100
AcDbLine
 10
40.505060999999998
 20
174.92040074399995
 30
0.0
 11
40.505060999999998
 21
171.97040074399996
 31
0.0
  0
LINE
  5
70
100
AcDbEntity
  8
Layer1
 62
256
370
-1
 48
1.0
  6
BYLAYER
100
AcDbLine
 10
40.651999408634239
 20
120.97884465192755
 30
0.0
 11
90.251998936898133
 21
120.97884465192755
 31
0.0
  0
LINE
  5
71
100
AcDbEntity
  8
Layer1
 62
256
370
-1
 48
1.0
  6
BYLAYER
100
AcDbLine
 10
40.505060999999998
 20
171.97040074399996
 30
0.0
 11
90.105060528263891
 21
171.97040074399996
 31
0.0
  0
LINE
  5
72
100
AcDbEntity
  8
Layer1
 62
256
370
-1
 48
1.0
  6
BYLAYER
100
AcDbLine
 10
116.82699893689815
 20
99.871907907927579
 30
0.0
 11
116.82699893689815
 21
113.97190790792757
 31
0.0
  0
LINE
  5
73
100
AcDbEntity
  8
Layer1
 62
256
370
-1
 48
1.0
  6
BYLAYER
100
AcDbLine
 10
116.68006052826391
 20
150.86346399999999
 30
0.0
 11
116.68006052826391
 21
164.96346399999999
 31
0.0
  0
LINE
  5
74
100
AcDbEntity
  8
Layer1
 62
256
370
-1
 48
1.0
  6
BYLAYER
100
AcDbLine
 10
116.82699893689815
 20
113.97190790792757
 30
0.0
 11
113.87699893689813
 21
113.97190790792757
 31
0.0
  0
LINE
  5
75
100
AcDbEntity
  8
Layer1
 62
256
370
-1
 48
1.0
  6
BYLAYER
100
AcDbLine
 10
116.68006052826391
 20
164.96346399999999
 30
0.0
 11
113.73006052826389
 21
164.96346399999999
 31
0.0
  0
LINE
  5
76
100
AcDbEntity
  8
Layer1
 62
256
370
-1
 48
1.0
  6
BYLAYER
100
AcDbLine
 10
113.87699893689813
 20
113.97190790792757
 30
0.0
 11
113.87699893689813
 21
99.871907907927579
 31
0.0
  0
LINE
  5
77
100
AcDbEntity
  8
Layer1
 62
256
370
-1
 48
1.0
  6
BYLAYER
100
AcDbLine
 10
113.73006052826389
 20
164.96346399999999
 30
0.0
 11
113.73006052826389
 21
150.86346399999999
 31
0.0
  0
LINE
  5
78
100
AcDbEntity
  8
Layer1
 62
256
370
-1
 48
1.0
  6
BYLAYER
100
AcDbLine
 10
113.73006052826389
 20
150.86346399999999
 30
0.0
 11
116.68006052826391
 21
150.86346399999999
 31
0.0
  0
LINE
  5
79
100
AcDbEntity
  8
Layer1
 62
256
370
-1
 48
1.0
  6
BYLAYER
100
AcDbLine
 10
113.87699893689813
 20
99.871907907927579
 30
0.0
 11
116.82699893689815
 21
99.871907907927579
 31
0.0
  0
CIRCLE
  5
7A
100
AcDbEntity
  8
Layer1
 62
256
370
-1
 48
1.0
  6
BYLAYER
100
AcDbCircle
 10
11.405060799736106
 20
138.38152686445159
 30
0.0
 40
1.5
  0
CIRCLE
  5
7B
100
AcDbEntity
  8
Layer1
 62
256
370
-1
 48
1.0
  6
BYLAYER
100
AcDbCircle
 10
11.551999208370347
 20
87.389970772379172
 30
0.0
 40
1.5
  0
CIRCLE
  5
7C
100
AcDbEntity
  8
Layer1
 62
256
370
-1
 48
1.0
  6
BYLAYER
100
AcDbCircle
 10
119.2050607997362
 20
138.38152686445159
 30
0.0
 40
1.5
  0
CIRCLE
  5
7D
100
AcDbEntity
  8
Layer1
 62
256
370
-1
 48
1.0
  6
BYLAYER
100
AcDbCircle
 10
119.35199920837044
 20
87.389970772379172
 30
0.0
 40
1.5
  0
CIRCLE
  5
7E
100
AcDbEntity
  8
Layer1
 62
256
370
-1
 48
1.0
  6
BYLAYER
100
AcDbCircle
 10
11.405060799736106
 20
177.44540057134094
 30
0.0
 40
1.5
  0
CIRCLE
  5
7F
100
AcDbEntity
  8
Layer1
 62
256
370
-1
 48
1.0
  6
BYLAYER
100
AcDbCircle
 10
11.551999208370347
 20
126.45384447926853
 30
0.0
 40
1.5
  0
CIRCLE
  5
80
100
AcDbEntity
  8
Layer1
 62
256
370
-1
 48
1.0
  6
BYLAYER
100
AcDbCircle
 10
119.2050607997362
 20
177.44540057134094
 30
0.0
 40
1.5
  0
CIRCLE
  5
81
100
AcDbEntity
  8
Layer1
 62
256
370
-1
 48
1.0
  6
BYLAYER
100
AcDbCircle
 10
119.35199920837044
 20
126.45384447926853
 30
0.0
 40
1.5
  0
LINE
  5
82
100
AcDbEntity
  8
Layer1
 62
256
370
-1
 48
1.0
  6
BYLAYER
100
AcDbLine
 10
232.22596549048137
 20
155.96799883178258
 30
0.0
 11
232.22596549048137
 21
169.06318183178257
 31
0.0
  0
LINE
  5
83
100
AcDbEntity
  8
Layer1
 62
256
370
-1
 48
1.0
  6
BYLAYER
100
AcDbLine
 10
232.58581333167049
 20
118.11705646806527
 30
0.0
 11
232.58581333167049
 21
131.21223946806526
 31
0.0
  0
LINE
  5
84
100
AcDbEntity
  8
Layer1
 62
256
370
-1
 48
1.0
  6
BYLAYER
100
AcDbLine
 10
232.22596549048137
 20
169.06318217055971
 30
0.0
 11
229.22596549048137
 21
169.06318217055971
 31
0.0
  0
LINE
  5
85
100
AcDbEntity
  8
Layer1
 62
256
370
-1
 48
1.0
  6
BYLAYER
100
AcDbLine
 10
232.58581333167049
 20
131.2122398068424
 30
0.0
 11
229.58581333167049
 21
131.2122398068424
 31
0.0
  0
LINE
  5
86
100
AcDbEntity
  8
Layer1
 62
256
370
-1
 48
1.0
  6
BYLAYER
100
AcDbLine
 10
229.22596549048137
 20
175.26559083178259
 30
0.0
 11
229.22596549048137
 21
169.06318183178257
 31
0.0
  0
LINE
  5
87
100
AcDbEntity
  8
Layer1
 62
256
370
-1
 48
1.0
  6
BYLAYER
100
AcDbLine
 10
229.58581333167049
 20
137.41464846806528
 30
0.0
 11
229.58581333167049
 21
131.21223946806526
 31
0.0
  0
LINE
  5
88
100
AcDbEntity
  8
Layer1
 62
256
370
-1
 48
1.0
  6
BYLAYER
100
AcDbLine
 10
229.22596510782199
 20
175.26559040312307
 30
0.0
 11
205.67596499999999
 21
175.26559040312307
 31
0.0
  0
LINE
  5
89
100
AcDbEntity
  8
Layer1
 62
256
370
-1
 48
1.0
  6
BYLAYER
100
AcDbLine
 10
229.58581294901111
 20
137.41464803940576
 30
0.0
 11
206.03581299999999
 21
137.41464803940576
 31
0.0
  0
LINE
  5
8A
100
AcDbEntity
  8
Layer1
 62
256
370
-1
 48
1.0
  6
BYLAYER
100
AcDbLine
 10
205.67596549048116
 20
175.26559040312307
 30
0.0
 11
205.67596549048116
 21
178.26559040312307
 31
0.0
  0
LINE
  5
8B
100
AcDbEntity
  8
Layer1
 62
256
370
-1
 48
1.0
  6
BYLAYER
100
AcDbLine
 10
206.03581333167028
 20
137.41464803940576
 30
0.0
 11
206.03581333167028
 21
140.41464803940576
 31
0.0
  0
LINE
  5
8C
100
AcDbEntity
  8
Layer1
 62
256
370
-1
 48
1.0
  6
BYLAYER
100
AcDbLine
 10
205.67596549048116
 20
178.26559040312307
 30
0.0
 11
156.17596557955807
 21
178.26559040312307
 31
0.0
  0
LINE
  5
8D
100
AcDbEntity
  8
Layer1
 62
256
370
-1
 48
1.0
  6
BYLAYER
100
AcDbLine
 10
206.03581333167028
 20
140.41464803940576
 30
0.0
 11
156.53581342074719
 21
140.41464803940576
 31
0.0
  0
LINE
  5
8E
100
AcDbEntity
  8
Layer1
 62
256
370
-1
 48
1.0
  6
BYLAYER
100
AcDbLine
 10
156.17596549048116
 20
175.26559040312307
 30
0.0
 11
156.17596549048116
 21
178.26559040312307
 31
0.0
  0
LINE
  5
8F
100
AcDbEntity
  8
Layer1
 62
256
370
-1
 48
1.0
  6
BYLAYER
100
AcDbLine
 10
156.53581333167028
 20
137.41464803940576
 30
0.0
 11
156.53581333167028
 21
140.41464803940576
 31
0.0
  0
LINE
  5
90
100
AcDbEntity
  8
Layer1
 62
256
370
-1
 48
1.0
  6
BYLAYER
100
AcDbLine
 10
129.62596510782197
 20
175.26559040312307
 30
0.0
 11
156.17596499999999
 21
175.26559040312307
 31
0.0
  0
LINE
  5
91
100
AcDbEntity
  8
Layer1
 62
256
370
-1
 48
1.0
  6
BYLAYER
100
AcDbLine
 10
129.98581294901109
 20
137.41464803940576
 30
0.0
 11
156.53581299999999
 21
137.41464803940576
 31
0.0
  0
LINE
  5
92
100
AcDbEntity
  8
Layer1
 62
256
370
-1
 48
1.0
  6
BYLAYER
100
AcDbLine
 10
129.62596549048186
 20
168.96318183178258
 30
0.0
 11
129.62596549048186
 21
175.26559083178259
 31
0.0
  0
LINE
  5
93
100
AcDbEntity
  8
Layer1
 62
256
370
-1
 48
1.0
  6
BYLAYER
100
AcDbLine
 10
129.98581333167098
 20
131.11223946806527
 30
0.0
 11
129.98581333167098
 21
137.41464846806528
 31
0.0
  0
LINE
  5
94
100
AcDbEntity
  8
Layer1
 62
256
370
-1
 48
1.0
  6
BYLAYER
100
AcDbLine
 10
129.62596549048186
 20
168.96318217055935
 30
0.0
 11
132.62596549048186
 21
168.96318217055935
 31
0.0
  0
LINE
  5
95
100
AcDbEntity
  8
Layer1
 62
256
370
-1
 48
1.0
  6
BYLAYER
100
AcDbLine
 10
129.98581333167098
 20
131.11223980684204
 30
0.0
 11
132.98581333167098
 21
131.11223980684204
 31
0.0
  0
LINE
  5
96
100
AcDbEntity
  8
Layer1
 62
256
370
-1
 48
1.0
  6
BYLAYER
100
AcDbLine
 10
132.62596549048186
 20
168.96318183178258
 30
0.0
 11
132.62596549048186
 21
156.06799883178257
 31
0.0
  0
LINE
  5
97
100
AcDbEntity
  8
Layer1
 62
256
370
-1
 48
1.0
  6
BYLAYER
100
AcDbLine
 10
132.98581333167098
 20
131.11223946806527
 30
0.0
 11
132.98581333167098
 21
118.21705646806527
 31
0.0
  0
LINE
  5
98
100
AcDbEntity
  8
Layer1
 62
256
370
-1
 48
1.0
  6
BYLAYER
100
AcDbLine
 10
129.62596549048186
 20
156.06799863568634
 30
0.0
 11
132.62596549048186
 21
156.06799863568634
 31
0.0
  0
LINE
  5
99
100
AcDbEntity
  8
Layer1
 62
256
370
-1
 48
1.0
  6
BYLAYER
100
AcDbLine
 10
129.98581333167098
 20
118.21705627196903
 30
0.0
 11
132.98581333167098
 21
118.21705627196903
 31
0.0
  0
LINE
  5
9A
100
AcDbEntity
  8
Layer1
 62
256
370
-1
 48
1.0
  6
BYLAYER
100
AcDbLine
 10
129.62596549048146
 20
149.76559083178259
 30
0.0
 11
129.62596549048146
 21
156.06799883178257
 31
0.0
  0
LINE
  5
9B
100
AcDbEntity
  8
Layer1
 62
256
370
-1
 48
1.0
  6
BYLAYER
100
AcDbLine
 10
129.98581333167058
 20
111.91464846806528
 30
0.0
 11
129.98581333167058
 21
118.21705646806527
 31
0.0
  0
LINE
  5
9C
100
AcDbEntity
  8
Layer1
 62
256
370
-1
 48
1.0
  6
BYLAYER
100
AcDbLine
 10
156.17596499999999
 20
149.76559040312307
 30
0.0
 11
129.62596510782197
 21
149.76559040312307
 31
0.0
  0
LINE
  5
9D
100
AcDbEntity
  8
Layer1
 62
256
370
-1
 48
1.0
  6
BYLAYER
100
AcDbLine
 10
156.53581299999999
 20
111.91464803940576
 30
0.0
 11
129.98581294901109
 21
111.91464803940576
 31
0.0
  0
LINE
  5
9E
100
AcDbEntity
  8
Layer1
 62
256
370
-1
 48
1.0
  6
BYLAYER
100
AcDbLine
 10
156.17596549048116
 20
149.76559040312307
 30
0.0
 11
156.17596549048116
 21
146.76559040312307
 31
0.0
  0
LINE
  5
9F
100
AcDbEntity
  8
Layer1
 62
256
370
-1
 48
1.0
  6
BYLAYER
100
AcDbLine
 10
156.53581333167028
 20
111.91464803940576
 30
0.0
 11
156.53581333167028
 21
108.91464803940576
 31
0.0
  0
LINE
  5
A0
100
AcDbEntity
  8
Layer1
 62
256
370
-1
 48
1.0
  6
BYLAYER
100
AcDbLine
 10
205.67596549048116
 20
146.76559040312307
 30
0.0
 11
156.17596557955807
 21
146.76559040312307
 31
0.0
  0
LINE
  5
A1
100
AcDbEntity
  8
Layer1
 62
256
370
-1
 48
1.0
  6
BYLAYER
100
AcDbLine
 10
206.03581333167028
 20
108.91464803940576
 30
0.0
 11
156.53581342074719
 21
108.91464803940576
 31
0.0
  0
LINE
  5
A2
100
AcDbEntity
  8
Layer1
 62
256
370
-1
 48
1.0
  6
BYLAYER
100
AcDbLine
 10
205.67596549048116
 20
149.76559040312307
 30
0.0
 11
205.67596549048116
 21
146.76559040312307
 31
0.0
  0
LINE
  5
A3
100
AcDbEntity
  8
Layer1
 62
256
370
-1
 48
1.0
  6
BYLAYER
100
AcDbLine
 10
206.03581333167028
 20
111.91464803940576
 30
0.0
 11
206.03581333167028
 21
108.91464803940576
 31
0.0
  0
LINE
  5
A4
100
AcDbEntity
  8
Layer1
 62
256
370
-1
 48
1.0
  6
BYLAYER
100
AcDbLine
 10
229.22596510782199
 20
149.76559040312307
 30
0.0
 11
205.67596499999999
 21
149.76559040312307
 31
0.0
  0
LINE
  5
A5
100
AcDbEntity
  8
Layer1
 62
256
370
-1
 48
1.0
  6
BYLAYER
100
AcDbLine
 10
229.58581294901111
 20
111.91464803940576
 30
0.0
 11
206.03581299999999
 21
111.91464803940576
 31
0.0
  0
LINE
  5
A6
100
AcDbEntity
  8
Layer1
 62
256
370
-1
 48
1.0
  6
BYLAYER
100
AcDbLine
 10
229.22596549048137
 20
149.76559083178259
 30
0.0
 11
229.22596549048137
 21
155.96799883178258
 31
0.0
  0
LINE
  5
A7
100
AcDbEntity
  8
Layer1
 62
256
370
-1
 48
1.0
  6
BYLAYER
100
AcDbLine
 10
229.58581333167049
 20
111.91464846806528
 30
0.0
 11
229.58581333167049
 21
118.11705646806527
 31
0.0
  0
LINE
  5
A8
100
AcDbEntity
  8
Layer1
 62
256
370
-1
 48
1.0
  6
BYLAYER
100
AcDbLine
 10
232.22596549048137
 20
155.96799863568643
 30
0.0
 11
229.22596549048137
 21
155.96799863568643
 31
0.0
  0
LINE
  5
A9
100
AcDbEntity
  8
Layer1
 62
256
370
-1
 48
1.0
  6
BYLAYER
100
AcDbLine
 10
232.58581333167049
 20
118.11705627196912
 30
0.0
 11
229.58581333167049
 21
118.11705627196912
 31
0.0
  0
LINE
  5
AA
100
AcDbEntity
  8
Layer1
 62
256
370
-1
 48
1.0
  6
BYLAYER
100
AcDbLine
 10
150.29342802409053
 20
99.083420928014547
 30
0.0
 11
156.49583702409055
 21
99.083420928014547
 31
0.0
  0
LINE
  5
AB
100
AcDbEntity
  8
Layer1
 62
256
370
-1
 48
1.0
  6
BYLAYER
100
AcDbLine
 10
150.29342843833012
 20
99.083420986195236
 30
0.0
 11
150.29342843833012
 21
92.151484074569893
 31
0.0
  0
LINE
  5
AC
100
AcDbEntity
  8
Layer1
 62
256
370
-1
 48
1.0
  6
BYLAYER
100
AcDbLine
 10
147.29342843833012
 20
92.151484074569893
 30
0.0
 11
150.29342843833012
 21
92.151484074569893
 31
0.0
  0
LINE
  5
AD
100
AcDbEntity
  8
Layer1
 62
256
370
-1
 48
1.0
  6
BYLAYER
100
AcDbLine
 10
147.29342843833012
 20
78.151483986195245
 30
0.0
 11
147.29342843833012
 21
92.151483986195231
 31
0.0
  0
LINE
  5
AE
100
AcDbEntity
  8
Layer1
 62
256
370
-1
 48
1.0
  6
BYLAYER
100
AcDbLine
 10
150.29342843833012
 20
78.151484074569908
 30
0.0
 11
147.29342843833012
 21
78.151484074569908
 31
0.0
  0
LINE
  5
AF
100
AcDbEntity
  8
Layer1
 62
256
370
-1
 48
1.0
  6
BYLAYER
100
AcDbLine
 10
150.29342843833012
 20
78.151484074569908
 30
0.0
 11
150.29342843833012
 21
71.155673986195239
 31
0.0
  0
LINE
  5
B0
100
AcDbEntity
  8
Layer1
 62
256
370
-1
 48
1.0
  6
BYLAYER
100
AcDbLine
 10
150.29342802409053
 20
71.155673514236355
 30
0.0
 11
156.49583702409055
 21
71.155673514236355
 31
0.0
  0
LINE
  5
B1
100
AcDbEntity
  8
Layer1
 62
256
370
-1
 48
1.0
  6
BYLAYER
100
AcDbLine
 10
156.49583667089485
 20
68.219547221125481
 30
0.0
 11
156.49583667089485
 21
71.155673514236355
 31
0.0
  0
LINE
  5
B2
100
AcDbEntity
  8
Layer1
 62
256
370
-1
 48
1.0
  6
BYLAYER
100
AcDbLine
 10
156.49583702409055
 20
68.219547221125481
 30
0.0
 11
169.59102002409054
 21
68.219547221125481
 31
0.0
  0
LINE
  5
B3
100
AcDbEntity
  8
Layer1
 62
256
370
-1
 48
1.0
  6
BYLAYER
100
AcDbLine
 10
169.59102020576722
 20
68.219547221125481
 30
0.0
 11
169.59102020576722
 21
71.155673514236355
 31
0.0
  0
LINE
  5
B4
100
AcDbEntity
  8
Layer1
 62
256
370
-1
 48
1.0
  6
BYLAYER
100
AcDbLine
 10
175.79342802409053
 20
71.155673514236355
 30
0.0
 11
169.59102002409054
 21
71.155673514236355
 31
0.0
  0
LINE
  5
B5
100
AcDbEntity
  8
Layer1
 62
256
370
-1
 48
1.0
  6
BYLAYER
100
AcDbLine
 10
175.79342843833012
 20
78.151484074569908
 30
0.0
 11
175.79342843833012
 21
71.155673986195239
 31
0.0
  0
LINE
  5
B6
100
AcDbEntity
  8
Layer1
 62
256
370
-1
 48
1.0
  6
BYLAYER
100
AcDbLine
 10
175.79342843833012
 20
78.151484074569908
 30
0.0
 11
178.79342843833012
 21
78.151484074569908
 31
0.0
  0
LINE
  5
B7
100
AcDbEntity
  8
Layer1
 62
256
370
-1
 48
1.0
  6
BYLAYER
100
AcDbLine
 10
178.79342843833012
 20
78.151483986195245
 30
0.0
 11
178.79342843833012
 21
92.151483986195231
 31
0.0
  0
LINE
  5
B8
100
AcDbEntity
  8
Layer1
 62
256
370
-1
 48
1.0
  6
BYLAYER
100
AcDbLine
 10
175.79342843833012
 20
92.151484074569893
 30
0.0
 11
178.79342843833012
 21
92.151484074569893
 31
0.0
  0
LINE
  5
B9
100
AcDbEntity
  8
Layer1
 62
256
370
-1
 48
1.0
  6
BYLAYER
100
AcDbLine
 10
175.79342843833012
 20
99.083420986195236
 30
0.0
 11
175.79342843833012
 21
92.151484074569893
 31
0.0
  0
LINE
  5
BA
100
AcDbEntity
  8
Layer1
 62
256
370
-1
 48
1.0
  6
BYLAYER
100
AcDbLine
 10
175.79342802409053
 20
99.083420928014547
 30
0.0
 11
169.59102002409054
 21
99.083420928014547
 31
0.0
  0
LINE
  5
BB
100
AcDbEntity
  8
Layer1
 62
256
370
-1
 48
1.0
  6
BYLAYER
100
AcDbLine
 10
169.59102020576722
 20
102.08342092801455
 30
0.0
 11
169.59102020576722
 21
99.083420928014547
 31
0.0
  0
LINE
  5
BC
100
AcDbEntity
  8
Layer1
 62
256
370
-1
 48
1.0
  6
BYLAYER
100
AcDbLine
 10
156.49583702409055
 20
102.08342092801455
 30
0.0
 11
169.59102002409054
 21
102.08342092801455
 31
0.0
  0
LINE
  5
BD
100
AcDbEntity
  8
Layer1
 62
256
370
-1
 48
1.0
  6
BYLAYER
100
AcDbLine
 10
156.49583667089485
 20
102.08342092801455
 30
0.0
 11
156.49583667089485
 21
99.083420928014547
 31
0.0
  0
LINE
  5
BE
100
AcDbEntity
  8
Layer1
 62
256
370
-1
 48
1.0
  6
BYLAYER
100
AcDbLine
 10
122.85199920837044
 20
126.95384447926807
 30
0.0
 11
122.74977668723773
 21
127.73030161457513
 31
0.0
  0
LINE
  5
BF
100
AcDbEntity
  8
Layer1
 62
256
370
-1
 48
1.0
  6
BYLAYER
100
AcDbLine
 10
122.7050607997362
 20
177.94540057134049
 30
0.0
 11
122.60283827860349
 21
178.72185770664754
 31
0.0
  0
LINE
  5
C0
100
AcDbEntity
  8
Layer1
 62
256
370
-1
 48
1.0
  6
BYLAYER
100
AcDbLine
 10
122.74977668723733
 20
127.73030161457513
 30
0.0
 11
122.45007541972313
 21
128.45384447926807
 31
0.0
  0
LINE
  5
C1
100
AcDbEntity
  8
Layer1
 62
256
370
-1
 48
1.0
  6
BYLAYER
100
AcDbLine
 10
122.60283827860309
 20
178.72185770664754
 30
0.0
 11
122.30313701108889
 21
179.44540057134049
 31
0.0
  0
LINE
  5
C2
100
AcDbEntity
  8
Layer1
 62
256
370
-1
 48
1.0
  6
BYLAYER
100
AcDbLine
 10
122.45007541972365
 20
128.45384447926807
 30
0.0
 11
121.97331955193044
 21
129.07516482282716
 31
0.0
  0
LINE
  5
C3
100
AcDbEntity
  8
Layer1
 62
256
370
-1
 48
1.0
  6
BYLAYER
100
AcDbLine
 10
122.3031370110894
 20
179.44540057134049
 30
0.0
 11
121.8263811432962
 21
180.06672091489958
 31
0.0
  0
LINE
  5
C4
100
AcDbEntity
  8
Layer1
 62
256
370
-1
 48
1.0
  6
BYLAYER
100
AcDbLine
 10
121.97331955193005
 20
129.07516482282716
 30
0.0
 11
121.35199920837005
 21
129.55192069062122
 31
0.0
  0
LINE
  5
C5
100
AcDbEntity
  8
Layer1
 62
256
370
-1
 48
1.0
  6
BYLAYER
100
AcDbLine
 10
121.82638114329581
 20
180.06672091489958
 30
0.0
 11
121.2050607997358
 21
180.54347678269363
 31
0.0
  0
LINE
  5
C6
100
AcDbEntity
  8
Layer1
 62
256
370
-1
 48
1.0
  6
BYLAYER
100
AcDbLine
 10
121.35199920837044
 20
129.55192069062122
 30
0.0
 11
120.62845634367773
 21
129.85162195813513
 31
0.0
  0
LINE
  5
C7
100
AcDbEntity
  8
Layer1
 62
256
370
-1
 48
1.0
  6
BYLAYER
100
AcDbLine
 10
121.2050607997362
 20
180.54347678269363
 30
0.0
 11
120.48151793504348
 21
180.84317805020754
 31
0.0
  0
LINE
  5
C8
100
AcDbEntity
  8
Layer1
 62
256
370
-1
 48
1.0
  6
BYLAYER
100
AcDbLine
 10
120.62845634367773
 20
129.85162195813513
 30
0.0
 11
119.85199920837044
 21
129.95384447926807
 31
0.0
  0
LINE
  5
C9
100
AcDbEntity
  8
Layer1
 62
256
370
-1
 48
1.0
  6
BYLAYER
100
AcDbLine
 10
120.48151793504348
 20
180.84317805020754
 30
0.0
 11
119.7050607997362
 21
180.94540057134049
 31
0.0
  0
LINE
  5
CA
100
AcDbEntity
  8
Layer1
 62
256
370
-1
 48
1.0
  6
BYLAYER
100
AcDbLine
 10
11.051999408634241
 20
129.95384447926807
 30
0.0
 11
119.85199893689813
 21
129.95384447926807
 31
0.0
  0
LINE
  5
CB
100
AcDbEntity
  8
Layer1
 62
256
370
-1
 48
1.0
  6
BYLAYER
100
AcDbLine
 10
10.905061
 20
180.94540057134049
 30
0.0
 11
119.70506052826389
 21
180.94540057134049
 31
0.0
  0
LINE
  5
CC
100
AcDbEntity
  8
Layer1
 62
256
370
-1
 48
1.0
  6
BYLAYER
100
AcDbLine
 10
10.275542073063008
 20
129.85162195813513
 30
0.0
 11
11.051999208370347
 21
129.95384447926807
 31
0.0
  0
LINE
  5
CD
100
AcDbEntity
  8
Layer1
 62
256
370
-1
 48
1.0
  6
BYLAYER
100
AcDbLine
 10
10.128603664428766
 20
180.84317805020754
 30
0.0
 11
10.905060799736106
 21
180.94540057134049
 31
0.0
  0
LINE
  5
CE
100
AcDbEntity
  8
Layer1
 62
256
370
-1
 48
1.0
  6
BYLAYER
100
AcDbLine
 10
9.5519992083703471
 20
129.55192069062122
 30
0.0
 11
10.275542073063008
 21
129.85162195813513
 31
0.0
  0
LINE
  5
CF
100
AcDbEntity
  8
Layer1
 62
256
370
-1
 48
1.0
  6
BYLAYER
100
AcDbLine
 10
9.4050607997361055
 20
180.54347678269363
 30
0.0
 11
10.128603664428766
 21
180.84317805020754
 31
0.0
  0
LINE
  5
D0
100
AcDbEntity
  8
Layer1
 62
256
370
-1
 48
1.0
  6
BYLAYER
100
AcDbLine
 10
8.9306788648103463
 20
129.07516482282716
 30
0.0
 11
9.5519992083703471
 21
129.55192069062122
 31
0.0
  0
LINE
  5
D1
100
AcDbEntity
  8
Layer1
 62
256
370
-1
 48
1.0
  6
BYLAYER
100
AcDbLine
 10
8.7837404561761048
 20
180.06672091489958
 30
0.0
 11
9.4050607997361055
 21
180.54347678269363
 31
0.0
  0
LINE
  5
D2
100
AcDbEntity
  8
Layer1
 62
256
370
-1
 48
1.0
  6
BYLAYER
100
AcDbLine
 10
8.4539229970171448
 20
128.45384447926813
 30
0.0
 11
8.9306788648103463
 21
129.07516482282716
 31
0.0
  0
LINE
  5
D3
100
AcDbEntity
  8
Layer1
 62
256
370
-1
 48
1.0
  6
BYLAYER
100
AcDbLine
 10
8.3069845883829032
 20
179.44540057134054
 30
0.0
 11
8.7837404561761048
 21
180.06672091489958
 31
0.0
  0
LINE
  5
D4
100
AcDbEntity
  8
Layer1
 62
256
370
-1
 48
1.0
  6
BYLAYER
100
AcDbLine
 10
8.1542217295030071
 20
127.73030161457513
 30
0.0
 11
8.4539229970171448
 21
128.45384447926813
 31
0.0
  0
LINE
  5
D5
100
AcDbEntity
  8
Layer1
 62
256
370
-1
 48
1.0
  6
BYLAYER
100
AcDbLine
 10
8.0072833208687655
 20
178.72185770664754
 30
0.0
 11
8.3069845883829032
 21
179.44540057134054
 31
0.0
  0
LINE
  5
D6
100
AcDbEntity
  8
Layer1
 62
256
370
-1
 48
1.0
  6
BYLAYER
100
AcDbLine
 10
8.0519992083703471
 20
126.95384447926801
 30
0.0
 11
8.1542217295030071
 21
127.73030161457513
 31
0.0
  0
LINE
  5
D7
100
AcDbEntity
  8
Layer1
 62
256
370
-1
 48
1.0
  6
BYLAYER
100
AcDbLine
 10
7.9050607997361055
 20
177.94540057134043
 30
0.0
 11
8.0072833208687655
 21
178.72185770664754
 31
0.0
  0
LINE
  5
D8
100
AcDbEntity
  8
Layer1
 62
256
370
-1
 48
1.0
  6
BYLAYER
100
AcDbLine
 10
8.0519992083703471
 20
86.889970907927591
 30
0.0
 11
8.0519992083703471
 21
126.95384465192754
 31
0.0
  0
LINE
  5
D9
100
AcDbEntity
  8
Layer1
 62
256
370
-1
 48
1.0
  6
BYLAYER
100
AcDbLine
 10
7.9050607997361055
 20
137.88152700000001
 30
0.0
 11
7.9050607997361055
 21
177.94540074399995
 31
0.0
  0
LINE
  5
DA
100
AcDbEntity
  8
Layer1
 62
256
370
-1
 48
1.0
  6
BYLAYER
100
AcDbLine
 10
8.1542217295030071
 20
86.11351363707098
 30
0.0
 11
8.0519992083703471
 21
86.889970772379172
 31
0.0
  0
LINE
  5
DB
100
AcDbEntity
  8
Layer1
 62
256
370
-1
 48
1.0
  6
BYLAYER
100
AcDbLine
 10
8.0072833208687655
 20
137.10506972914339
 30
0.0
 11
7.9050607997361055
 21
137.88152686445159
 31
0.0
  0
LINE
  5
DC
100
AcDbEntity
  8
Layer1
 62
256
370
-1
 48
1.0
  6
BYLAYER
100
AcDbLine
 10
8.4539229970171448
 20
85.389970772379172
 30
0.0
 11
8.1542217295030071
 21
86.11351363707098
 31
0.0
  0
LINE
  5
DD
100
AcDbEntity
  8
Layer1
 62
256
370
-1
 48
1.0
  6
BYLAYER
100
AcDbLine
 10
8.3069845883829032
 20
136.38152686445159
 30
0.0
 11
8.0072833208687655
 21
137.10506972914339
 31
0.0
  0
LINE
  5
DE
100
AcDbEntity
  8
Layer1
 62
256
370
-1
 48
1.0
  6
BYLAYER
100
AcDbLine
 10
8.9306788648103463
 20
84.768650428819171
 30
0.0
 11
8.4539229970167469
 21
85.389970772379172
 31
0.0
  0
LINE
  5
DF
100
AcDbEntity
  8
Layer1
 62
256
370
-1
 48
1.0
  6
BYLAYER
100
AcDbLine
 10
8.7837404561761048
 20
135.76020652089159
 30
0.0
 11
8.3069845883825053
 21
136.38152686445159
 31
0.0
  0
LINE
  5
E0
100
AcDbEntity
  8
Layer1
 62
256
370
-1
 48
1.0
  6
BYLAYER
100
AcDbLine
 10
9.5519992083703471
 20
84.291894561026027
 30
0.0
 11
8.9306788648107442
 21
84.768650428819171
 31
0.0
  0
LINE
  5
E1
100
AcDbEntity
  8
Layer1
 62
256
370
-1
 48
1.0
  6
BYLAYER
100
AcDbLine
 10
9.4050607997361055
 20
135.28345065309844
 30
0.0
 11
8.7837404561765027
 21
135.76020652089159
 31
0.0
  0
LINE
  5
E2
100
AcDbEntity
  8
Layer1
 62
256
370
-1
 48
1.0
  6
BYLAYER
100
AcDbLine
 10
10.275542073062553
 20
83.992193293512116
 30
0.0
 11
9.5519992083703471
 21
84.291894561026027
 31
0.0
  0
LINE
  5
E3
100
AcDbEntity
  8
Layer1
 62
256
370
-1
 48
1.0
  6
BYLAYER
100
AcDbLine
 10
10.128603664428312
 20
134.98374938558453
 30
0.0
 11
9.4050607997361055
 21
135.28345065309844
 31
0.0
  0
LINE
  5
E4
100
AcDbEntity
  8
Layer1
 62
256
370
-1
 48
1.0
  6
BYLAYER
100
AcDbLine
 10
11.051999208370347
 20
83.889970772379172
 30
0.0
 11
10.275542073062553
 21
83.992193293512116
 31
0.0
  0
LINE
  5
E5
100
AcDbEntity
  8
Layer1
 62
256
370
-1
 48
1.0
  6
BYLAYER
100
AcDbLine
 10
10.905060799736106
 20
134.88152686445159
 30
0.0
 11
10.128603664428312
 21
134.98374938558453
 31
0.0
  0
LINE
  5
E6
100
AcDbEntity
  8
Layer1
 62
256
370
-1
 48
1.0
  6
BYLAYER
100
AcDbLine
 10
119.85199893689813
 20
83.889970772379172
 30
0.0
 11
11.051999408634241
 21
83.889970772379172
 31
0.0
  0
LINE
  5
E7
100
AcDbEntity
  8
Layer1
 62
256
370
-1
 48
1.0
  6
BYLAYER
100
AcDbLine
 10
119.70506052826389
 20
134.88152686445159
 30
0.0
 11
10.905061
 21
134.88152686445159
 31
0.0
  0
LINE
  5
E8
100
AcDbEntity
  8
Layer1
 62
256
370
-1
 48
1.0
  6
BYLAYER
100
AcDbLine
 10
120.62845634367773
 20
83.992193293511207
 30
0.0
 11
119.85199920837005
 21
83.889970772379172
 31
0.0
  0
LINE
  5
E9
100
AcDbEntity
  8
Layer1
 62
256
370
-1
 48
1.0
  6
BYLAYER
100
AcDbLine
 10
120.48151793504348
 20
134.98374938558362
 30
0.0
 11
119.7050607997358
 21
134.88152686445159
 31
0.0
  0
LINE
  5
EA
100
AcDbEntity
  8
Layer1
 62
256
370
-1
 48
1.0
  6
BYLAYER
100
AcDbLine
 10
121.35199920837044
 20
84.291894561025117
 30
0.0
 11
120.62845634367773
 21
83.992193293511207
 31
0.0
  0
LINE
  5
EB
100
AcDbEntity
  8
Layer1
 62
256
370
-1
 48
1.0
  6
BYLAYER
100
AcDbLine
 10
121.2050607997362
 20
135.28345065309753
 30
0.0
 11
120.48151793504348
 21
134.98374938558362
 31
0.0
  0
LINE
  5
EC
100
AcDbEntity
  8
Layer1
 62
256
370
-1
 48
1.0
  6
BYLAYER
100
AcDbLine
 10
121.97331955193005
 20
84.768650428819171
 30
0.0
 11
121.35199920837005
 21
84.291894561025117
 31
0.0
  0
LINE
  5
ED
100
AcDbEntity
  8
Layer1
 62
256
370
-1
 48
1.0
  6
BYLAYER
100
AcDbLine
 10
121.82638114329581
 20
135.76020652089159
 30
0.0
 11
121.2050607997358
 21
135.28345065309753
 31
0.0
  0
LINE
  5
EE
100
AcDbEntity
  8
Layer1
 62
256
370
-1
 48
1.0
  6
BYLAYER
100
AcDbLine
 10
122.45007541972365
 20
85.389970772379172
 30
0.0
 11
121.97331955193005
 21
84.768650428819171
 31
0.0
  0
LINE
  5
EF
100
AcDbEntity
  8
Layer1
 62
256
370
-1
 48
1.0
  6
BYLAYER
100
AcDbLine
 10
122.3031370110894
 20
136.38152686445159
 30
0.0
 11
121.82638114329581
 21
135.76020652089159
 31
0.0
  0
LINE
  5
F0
100
AcDbEntity
  8
Layer1
 62
256
370
-1
 48
1.0
  6
BYLAYER
100
AcDbLine
 10
122.74977668723733
 20
86.11351363707098
 30
0.0
 11
122.45007541972365
 21
85.389970772379172
 31
0.0
  0
LINE
  5
F1
100
AcDbEntity
  8
Layer1
 62
256
370
-1
 48
1.0
  6
BYLAYER
100
AcDbLine
 10
122.60283827860309
 20
137.10506972914339
 30
0.0
 11
122.3031370110894
 21
136.38152686445159
 31
0.0
  0
LINE
  5
F2
100
AcDbEntity
  8
Layer1
 62
256
370
-1
 48
1.0
  6
BYLAYER
100
AcDbLine
 10
122.85199920837044
 20
86.889970772379172
 30
0.0
 11
122.74977668723733
 21
86.11351363707098
 31
0.0
  0
LINE
  5
F3
100
AcDbEntity
  8
Layer1
 62
256
370
-1
 48
1.0
  6
BYLAYER
100
AcDbLine
 10
122.7050607997362
 20
137.88152686445159
 30
0.0
 11
122.60283827860309
 21
137.10506972914339
 31
0.0
  0
LINE
  5
F4
100
AcDbEntity
  8
Layer1
 62
256
370
-1
 48
1.0
  6
BYLAYER
100
AcDbLine
 10
122.85199920837044
 20
126.95384465192754
 30
0.0
 11
122.85199920837044
 21
86.889970907927591
 31
0.0
  0
LINE
  5
F5
100
AcDbEntity
  8
Layer1
 62
256
370
-1
 48
1.0
  6
BYLAYER
100
AcDbLine
 10
122.7050607997362
 20
177.94540074399995
 30
0.0
 11
122.7050607997362
 21
137.88152700000001
 31
0.0
  0
CIRCLE
  5
F6
100
AcDbEntity
  8
Layer1
 62
256
370
-1
 48
1.0
  6
BYLAYER
100
AcDbCircle
 10
108.57699940863425
 20
98.514970907927577
 30
0.0
 40
1.5505733424627119
  0
CIRCLE
  5
F7
100
AcDbEntity
  8
Layer1
 62
256
370
-1
 48
1.0
  6
BYLAYER
100
AcDbCircle
 10
60.076999408634251
 20
115.27497090792758
 30
0.0
 40
1.5505733424627119
  0
CIRCLE
  5
F8
100
AcDbEntity
  8
Layer1
 62
256
370
-1
 48
1.0
  6
BYLAYER
100
AcDbCircle
 10
60.076999408634251
 20
98.514970907927577
 30
0.0
 40
1.5505733424627119
  0
CIRCLE
  5
F9
100
AcDbEntity
  8
Layer1
 62
256
370
-1
 48
1.0
  6
BYLAYER
100
AcDbCircle
 10
108.57699940863425
 20
115.27497090792758
 30
0.0
 40
1.5505733424627119
  0
LINE
  5
FA
100
AcDbEntity
  8
Layer1
 62
256
370
-1
 48
1.0
  6
BYLAYER
100
AcDbLine
 10
202.55450804207138
 20
102.08342092801456
 30
0.0
 11
202.55450804207138
 21
99.083420928014561
 31
0.0
  0
LINE
  5
FB
100
AcDbEntity
  8
Layer1
 62
256
370
-1
 48
1.0
  6
BYLAYER
100
AcDbLine
 10
202.55450832015259
 20
102.08342092801456
 30
0.0
 11
196.25450832015258
 21
102.08342092801456
 31
0.0
  0
LINE
  5
FC
100
AcDbEntity
  8
Layer1
 62
256
370
-1
 48
1.0
  6
BYLAYER
100
AcDbLine
 10
196.25450784841649
 20
102.08342074272258
 30
0.0
 11
196.25450784841649
 21
92.151484074570021
 31
0.0
  0
LINE
  5
FD
100
AcDbEntity
  8
Layer1
 62
256
370
-1
 48
1.0
  6
BYLAYER
100
AcDbLine
 10
193.25450784841649
 20
92.151484074570021
 30
0.0
 11
196.25450784841649
 21
92.151484074570021
 31
0.0
  0
LINE
  5
FE
100
AcDbEntity
  8
Layer1
 62
256
370
-1
 48
1.0
  6
BYLAYER
100
AcDbLine
 10
193.25450784841649
 20
78.151483742722576
 30
0.0
 11
193.25450784841649
 21
92.151483742722576
 31
0.0
  0
LINE
  5
FF
100
AcDbEntity
  8
Layer1
 62
256
370
-1
 48
1.0
  6
BYLAYER
100
AcDbLine
 10
196.25450784841649
 20
78.151484074570021
 30
0.0
 11
193.25450784841649
 21
78.151484074570021
 31
0.0
  0
LINE
  5
100
100
AcDbEntity
  8
Layer1
 62
256
370
-1
 48
1.0
  6
BYLAYER
100
AcDbLine
 10
196.25450784841649
 20
68.219547742722582
 30
0.0
 11
196.25450784841649
 21
78.151484074570021
 31
0.0
  0
LINE
  5
101
100
AcDbEntity
  8
Layer1
 62
256
370
-1
 48
1.0
  6
BYLAYER
100
AcDbLine
 10
202.55450832015259
 20
68.219547221125481
 30
0.0
 11
196.25450832015258
 21
68.219547221125481
 31
0.0
  0
LINE
  5
102
100
AcDbEntity
  8
Layer1
 62
256
370
-1
 48
1.0
  6
BYLAYER
100
AcDbLine
 10
202.55450804207138
 20
68.219547221125481
 30
0.0
 11
202.55450804207138
 21
71.219547221125481
 31
0.0
  0
LINE
  5
103
100
AcDbEntity
  8
Layer1
 62
256
370
-1
 48
1.0
  6
BYLAYER
100
AcDbLine
 10
202.55450832015259
 20
71.219547221125481
 30
0.0
 11
215.4496913201526
 21
71.219547221125481
 31
0.0
  0
LINE
  5
104
100
AcDbEntity
  8
Layer1
 62
256
370
-1
 48
1.0
  6
BYLAYER
100
AcDbLine
 10
215.44969157694399
 20
68.219547221125481
 30
0.0
 11
215.44969157694399
 21
71.219547221125481
 31
0.0
  0
LINE
  5
105
100
AcDbEntity
  8
Layer1
 62
256
370
-1
 48
1.0
  6
BYLAYER
100
AcDbLine
 10
221.7496923201526
 20
68.219547221125481
 30
0.0
 11
215.4496913201526
 21
68.219547221125481
 31
0.0
  0
LINE
  5
106
100
AcDbEntity
  8
Layer1
 62
256
370
-1
 48
1.0
  6
BYLAYER
100
AcDbLine
 10
221.74969184841649
 20
78.151484074570021
 30
0.0
 11
221.74969184841649
 21
68.219547742722582
 31
0.0
  0
LINE
  5
107
100
AcDbEntity
  8
Layer1
 62
256
370
-1
 48
1.0
  6
BYLAYER
100
AcDbLine
 10
221.74969184841649
 20
78.151484074570021
 30
0.0
 11
224.74969184841649
 21
78.151484074570021
 31
0.0
  0
LINE
  5
108
100
AcDbEntity
  8
Layer1
 62
256
370
-1
 48
1.0
  6
BYLAYER
100
AcDbLine
 10
224.74969184841649
 20
78.151483742722576
 30
0.0
 11
224.74969184841649
 21
92.151483742722576
 31
0.0
  0
LINE
  5
109
100
AcDbEntity
  8
Layer1
 62
256
370
-1
 48
1.0
  6
BYLAYER
100
AcDbLine
 10
221.74969184841649
 20
92.151484074570021
 30
0.0
 11
224.74969184841649
 21
92.151484074570021
 31
0.0
  0
LINE
  5
10A
100
AcDbEntity
  8
Layer1
 62
256
370
-1
 48
1.0
  6
BYLAYER
100
AcDbLine
 10
221.74969184841649
 20
102.08342074272258
 30
0.0
 11
221.74969184841649
 21
92.151484074570021
 31
0.0
  0
LINE
  5
10B
100
AcDbEntity
  8
Layer1
 62
256
370
-1
 48
1.0
  6
BYLAYER
100
AcDbLine
 10
221.7496923201526
 20
102.08342092801456
 30
0.0
 11
215.4496913201526
 21
102.08342092801456
 31
0.0
  0
LINE
  5
10C
100
AcDbEntity
  8
Layer1
 62
256
370
-1
 48
1.0
  6
BYLAYER
100
AcDbLine
 10
215.44969157694439
 20
102.08342092801456
 30
0.0
 11
215.44969157694439
 21
99.083420928014561
 31
0.0
  0
LINE
  5
10D
100
AcDbEntity
  8
Layer1
 62
256
370
-1
 48
1.0
  6
BYLAYER
100
AcDbLine
 10
215.4496913201526
 20
99.083420928014561
 30
0.0
 11
202.55450832015259
 21
99.083420928014561
 31
0.0
  0
LINE
  5
10E
100
AcDbEntity
  8
Layer1
 62
256
370
-1
 48
1.0
  6
BYLAYER
100
AcDbLine
 10
174.42445799999999
 20
91.439091869306665
 30
0.0
 11
174.42445799999999
 21
78.939092502606016
 31
0.0
  0
LINE
  5
10F
100
AcDbEntity
  8
Layer1
 62
256
370
-1
 48
1.0
  6
BYLAYER
100
AcDbLine
 10
164.92686499999999
 20
91.439091869306679
 30
0.0
 11
174.42445799999999
 21
91.439091869306679
 31
0.0
  0
LINE
  5
110
100
AcDbEntity
  8
Layer1
 62
256
370
-1
 48
1.0
  6
BYLAYER
100
AcDbLine
 10
164.92686499999999
 20
91.439091869306665
 30
0.0
 11
164.92686499999999
 21
78.939092502605916
 31
0.0
  0
LINE
  5
111
100
AcDbEntity
  8
Layer1
 62
256
370
-1
 48
1.0
  6
BYLAYER
100
AcDbLine
 10
164.92686499999999
 20
78.939092502605916
 30
0.0
 11
174.42445799999999
 21
78.939092502606016
 31
0.0
  0
LINE
  5
112
100
AcDbEntity
  8
Layer1
 62
256
370
-1
 48
1.0
  6
BYLAYER
100
AcDbLine
 10
160.93134900000001
 20
93.400303948453001
 30
0.0
 11
160.93134900000001
 21
75.800303948453006
 31
0.0
  0
LINE
  5
113
100
AcDbEntity
  8
Layer1
 62
256
370
-1
 48
1.0
  6
BYLAYER
100
AcDbLine
 10
154.93134877763134
 20
75.800303948453006
 30
0.0
 11
154.93134877763134
 21
93.400303948453001
 31
0.0
  0
LINE
  5
114
100
AcDbEntity
  8
Layer1
 62
256
370
-1
 48
1.0
  6
BYLAYER
100
AcDbLine
 10
154.93134877763134
 20
93.400303948453001
 30
0.0
 11
160.93134900000001
 21
93.400303948453001
 31
0.0
  0
LINE
  5
115
100
AcDbEntity
  8
Layer1
 62
256
370
-1
 48
1.0
  6
BYLAYER
100
AcDbLine
 10
154.93134877763134
 20
75.800303948453006
 30
0.0
 11
160.93134900000001
 21
75.800303948453006
 31
0.0
  0
ENDSEC
  0
SECTION
  2
OBJECTS
  0
DICTIONARY
  5
C
100
AcDbDictionary
280
0
281
1
  3
ACAD_GROUP
350
D
  3
ACAD_LAYOUT
350
1A
  3
ACAD_MLINESTYLE
350
17
  3
ACAD_PLOTSETTINGS
350
19
  3
ACAD_PLOTSTYLENAME
350
E
  3
AcDbVariableDictionary
350
116
  3
QCAD_OBJECTS
350
117
  0
DICTIONARY
  5
D
100
AcDbDictionary
280
0
281
1
  0
ACDBDICTIONARYWDFLT
  5
E
100
AcDbDictionary
281
1
  3
Normal
350
F
100
AcDbDictionaryWithDefault
340
F
  0
ACDBPLACEHOLDER
  5
F
  0
DICTIONARY
  5
17
100
AcDbDictionary
280
0
281
1
  3
Standard
350
18
  0
MLINESTYLE
  5
18
100
AcDbMlineStyle
  2
STANDARD
 70
0
  3

 62
256
 51
90.0
 52
90.0
 71
2
 49
0.5
 62
256
  6
BYLAYER
 49
-0.5
 62
256
  6
BYLAYER
  0
DICTIONARY
  5
19
100
AcDbDictionary
280
0
281
1
  0
DICTIONARY
  5
1A
100
AcDbDictionary
281
1
  3
Layout1
350
1E
  3
Layout2
350
26
  3
Model
350
22
  0
LAYOUT
  5
1E
100
AcDbPlotSettings
  1

  2
none_device
  4

  6

 40
0.0
 41
0.0
 42
0.0
 43
0.0
 44
0.0
 45
0.0
 46
0.0
 47
0.0
 48
0.0
 49
0.0
140
0.0
141
0.0
142
1.0
143
1.0
 70
688
 72
0
 73
0
 74
5
  7

 75
16
147
1.0
148
0.0
149
0.0
100
AcDbLayout
  1
Layout1
 70
1
 71
1
 10
0.0
 20
0.0
 11
420.0
 21
297.0
 12
0.0
 22
0.0
 32
0.0
 14
100000000000000000000.0
 24
100000000000000000000.0
 34
100000000000000000000.0
 15
-100000000000000000000.0
 25
-100000000000000000000.0
 35
-100000000000000000000.0
146
0.0
 13
0.0
 23
0.0
 33
0.0
 16
1.0
 26
0.0
 36
0.0
 17
0.0
 27
1.0
 37
0.0
 76
0
330
1B
  0
LAYOUT
  5
22
100
AcDbPlotSettings
  1

  2
none_device
  4

  6

 40
0.0
 41
0.0
 42
0.0
 43
0.0
 44
0.0
 45
0.0
 46
0.0
 47
0.0
 48
0.0
 49
0.0
140
0.0
141
0.0
142
1.0
143
1.0
 70
1712
 72
0
 73
0
 74
0
  7

 75
0
147
1.0
148
0.0
149
0.0
100
AcDbLayout
  1
Model
 70
1
 71
0
 10
0.0
 20
0.0
 11
12.0
 21
9.0
 12
0.0
 22
0.0
 32
0.0
 14
0.0
 24
0.0
 34
0.0
 15
0.0
 25
0.0
 35
0.0
146
0.0
 13
0.0
 23
0.0
 33
0.0
 16
1.0
 26
0.0
 36
0.0
 17
0.0
 27
1.0
 37
0.0
 76
0
330
1F
  0
LAYOUT
  5
26
100
AcDbPlotSettings
  1

  2
none_device
  4

  6

 40
0.0
 41
0.0
 42
0.0
 43
0.0
 44
0.0
 45
0.0
 46
0.0
 47
0.0
 48
0.0
 49
0.0
140
0.0
141
0.0
142
1.0
143
1.0
 70
688
 72
0
 73
0
 74
5
  7

 75
16
147
1.0
148
0.0
149
0.0
100
AcDbLayout
  1
Layout2
 70
1
 71
2
 10
0.0
 20
0.0
 11
12.0
 21
9.0
 12
0.0
 22
0.0
 32
0.0
 14
0.0
 24
0.0
 34
0.0
 15
0.0
 25
0.0
 35
0.0
146
0.0
 13
0.0
 23
0.0
 33
0.0
 16
1.0
 26
0.0
 36
0.0
 17
0.0
 27
1.0
 37
0.0
 76
0
330
23
  0
DICTIONARY
  5
116
100
AcDbDictionary
281
1
  3
DIMASSOC
350
119
  3
HIDETEXT
350
118
  0
DICTIONARYVAR
  5
118
100
DictionaryVariables
280
0
  1
2
  0
DICTIONARYVAR
  5
119
100
DictionaryVariables
280
0
  1
1
  0
DICTIONARY
  5
117
100
AcDbDictionary
281
1
  3
ColorSettings/BackgroundColor
350
11A
  3
ColorSettings/ColorMode
350
11B
  3
Grid/DisplayGrid00
350
11C
  3
Grid/DisplayGrid01
350
11D
  3
Grid/DisplayGrid02
350
11E
  3
Grid/DisplayGrid03
350
11F
  3
Grid/GridSpacingX00
350
120
  3
Grid/GridSpacingX01
350
121
  3
Grid/GridSpacingX02
350
122
  3
Grid/GridSpacingX03
350
123
  3
Grid/GridSpacingY00
350
124
  3
Grid/GridSpacingY01
350
125
  3
Grid/GridSpacingY02
350
126
  3
Grid/GridSpacingY03
350
127
  3
Grid/IsometricGrid00
350
128
  3
Grid/IsometricGrid01
350
129
  3
Grid/IsometricGrid02
350
12A
  3
Grid/IsometricGrid03
350
12B
  3
Grid/IsometricProjection00
350
12C
  3
Grid/IsometricProjection01
350
12D
  3
Grid/IsometricProjection02
350
12E
  3
Grid/IsometricProjection03
350
12F
  3
Grid/MetaGridSpacingX00
350
130
  3
Grid/MetaGridSpacingX01
350
131
  3
Grid/MetaGridSpacingX02
350
132
  3
Grid/MetaGridSpacingX03
350
133
  3
Grid/MetaGridSpacingY00
350
134
  3
Grid/MetaGridSpacingY01
350
135
  3
Grid/MetaGridSpacingY02
350
136
  3
Grid/MetaGridSpacingY03
350
137
  3
MultiPageSettings/Columns
350
138
  3
MultiPageSettings/GlueMarginsBottom
350
139
  3
MultiPageSettings/GlueMarginsLeft
350
13A
  3
MultiPageSettings/GlueMarginsRight
350
13B
  3
MultiPageSettings/GlueMarginsTop
350
13C
  3
MultiPageSettings/PrintCropMarks
350
13D
  3
MultiPageSettings/Rows
350
13E
  3
PageSettings/OffsetX
350
13F
  3
PageSettings/OffsetY
350
140
  3
PageSettings/PageOrientation
350
141
  3
PageSettings/PaperHeight
350
142
  3
PageSettings/PaperWidth
350
143
  3
PageSettings/Scale
350
144
  3
PageSettings/ShowPaperBorders
350
145
  3
QCADVersion
350
146
  3
UnitSettings/PaperUnit
350
147
  3
ViewportCenter
350
148
  3
ViewportHeight
350
149
  3
ViewportWidth
350
14A
  0
XRECORD
  5
11A
330
117
100
AcDbXrecord
280
1
1000
White
  0
XRECORD
  5
11B
330
117
100
AcDbXrecord
280
1
1000
FullColor
  0
XRECORD
  5
11C
330
117
100
AcDbXrecord
280
1
290
1
  0
XRECORD
  5
11D
330
117
100
AcDbXrecord
280
1
290
1
  0
XRECORD
  5
11E
330
117
100
AcDbXrecord
280
1
290
1
  0
XRECORD
  5
11F
330
117
100
AcDbXrecord
280
1
290
1
  0
XRECORD
  5
120
330
117
100
AcDbXrecord
280
1
1000
auto
  0
XRECORD
  5
121
330
117
100
AcDbXrecord
280
1
1000
auto
  0
XRECORD
  5
122
330
117
100
AcDbXrecord
280
1
1000
auto
  0
XRECORD
  5
123
330
117
100
AcDbXrecord
280
1
1000
auto
  0
XRECORD
  5
124
330
117
100
AcDbXrecord
280
1
1000
auto
  0
XRECORD
  5
125
330
117
100
AcDbXrecord
280
1
1000
auto
  0
XRECORD
  5
126
330
117
100
AcDbXrecord
280
1
1000
auto
  0
XRECORD
  5
127
330
117
100
AcDbXrecord
280
1
1000
auto
  0
XRECORD
  5
128
330
117
100
AcDbXrecord
280
1
290
0
  0
XRECORD
  5
129
330
117
100
AcDbXrecord
280
1
290
0
  0
XRECORD
  5
12A
330
117
100
AcDbXrecord
280
1
290
0
  0
XRECORD
  5
12B
330
117
100
AcDbXrecord
280
1
290
0
  0
XRECORD
  5
12C
330
117
100
AcDbXrecord
280
1
 90
65537
  0
XRECORD
  5
12D
330
117
100
AcDbXrecord
280
1
 90
65537
  0
XRECORD
  5
12E
330
117
100
AcDbXrecord
280
1
 90
65537
  0
XRECORD
  5
12F
330
117
100
AcDbXrecord
280
1
 90
65537
  0
XRECORD
  5
130
330
117
100
AcDbXrecord
280
1
1000
auto
  0
XRECORD
  5
131
330
117
100
AcDbXrecord
280
1
1000
auto
  0
XRECORD
  5
132
330
117
100
AcDbXrecord
280
1
1000
auto
  0
XRECORD
  5
133
330
117
100
AcDbXrecord
280
1
1000
auto
  0
XRECORD
  5
134
330
117
100
AcDbXrecord
280
1
1000
auto
  0
XRECORD
  5
135
330
117
100
AcDbXrecord
280
1
1000
auto
  0
XRECORD
  5
136
330
117
100
AcDbXrecord
280
1
1000
auto
  0
XRECORD
  5
137
330
117
100
AcDbXrecord
280
1
1000
auto
  0
XRECORD
  5
138
330
117
100
AcDbXrecord
280
1
 90
1
  0
XRECORD
  5
139
330
117
100
AcDbXrecord
280
1
 40
10.0
  0
XRECORD
  5
13A
330
117
100
AcDbXrecord
280
1
 40
10.0
  0
XRECORD
  5
13B
330
117
100
AcDbXrecord
280
1
 40
10.0
  0
XRECORD
  5
13C
330
117
100
AcDbXrecord
280
1
 40
10.0
  0
XRECORD
  5
13D
330
117
100
AcDbXrecord
280
1
290
0
  0
XRECORD
  5
13E
330
117
100
AcDbXrecord
280
1
 90
1
  0
XRECORD
  5
13F
330
117
100
AcDbXrecord
280
1
 40
0.0
  0
XRECORD
  5
140
330
117
100
AcDbXrecord
280
1
 40
0.0
  0
XRECORD
  5
141
330
117
100
AcDbXrecord
280
1
1000
Portrait
  0
XRECORD
  5
142
330
117
100
AcDbXrecord
280
1
 40
297.0
  0
XRECORD
  5
143
330
117
100
AcDbXrecord
280
1
 40
210.0
  0
XRECORD
  5
144
330
117
100
AcDbXrecord
280
1
1000
1:1
  0
XRECORD
  5
145
330
117
100
AcDbXrecord
280
1
290
1
  0
XRECORD
  5
146
330
117
100
AcDbXrecord
280
1
1000
3.18.0
  0
XRECORD
  5
147
330
117
100
AcDbXrecord
280
1
 90
4
  0
XRECORD
  5
149
330
117
100
AcDbXrecord
280
1
 40
175.78503220940991
  0
XRECORD
  5
14A
330
117
100
AcDbXrecord
280
1
 40
391.41108243871673
  0
ENDSEC
  0
EOF
